<?xml version="1.0" encoding="UTF-8"?> <svg xmlns="http://www.w3.org/2000/svg" width="107" height="112" viewBox="0 0 107 112" fill="none"> <path d="M78.1014 61.4399C77.6914 60.6199 77.3515 58.44 77.6415 58.14C78.0524 57.682 78.3186 57.1128 78.4069 56.5039C78.4951 55.8949 78.4013 55.2735 78.1373 54.7178C77.8734 54.162 77.4509 53.6967 76.9232 53.3804C76.3955 53.064 75.7861 52.9108 75.1715 52.9399C74.835 51.4282 74.3214 49.9615 73.6415 48.57C74.9439 48.3016 76.0997 47.5579 76.8836 46.4838C77.6674 45.4096 78.0232 44.0821 77.8815 42.76C77.8366 39.7444 77.5691 36.7362 77.0814 33.76C76.7614 32.14 76.8115 29.23 73.9315 27.52C72.9118 26.9384 71.7727 26.5974 70.6012 26.5228C69.4297 26.4483 68.2567 26.6422 67.1715 27.0899C67.2068 26.8682 67.2268 26.6444 67.2315 26.4199C67.2315 25.4721 66.9146 24.5515 66.3313 23.8045C65.748 23.0574 64.9317 22.5267 64.0122 22.2968C63.0927 22.0669 62.1227 22.151 61.2565 22.5357C60.3902 22.9204 59.6775 23.5836 59.2315 24.4199C58.1487 23.9227 56.9678 23.6762 55.7766 23.6987C54.5854 23.7212 53.4146 24.0122 52.3514 24.5499C51.9617 24.7581 51.599 25.0134 51.2715 25.3099L50.2715 24.14C49.8537 23.6361 49.2876 23.2769 48.6538 23.1135C48.02 22.9501 47.3508 22.9909 46.7415 23.2299C45.8368 23.7119 45.0903 24.4445 44.5914 25.3399C44.2046 24.6064 43.5994 24.0113 42.8595 23.6368C42.1196 23.2624 41.2816 23.1272 40.4614 23.2499C39.6221 23.2631 38.8109 23.5538 38.1542 24.0766C37.4975 24.5994 37.0323 25.325 36.8314 26.14C35.3605 25.4559 33.6932 25.3211 32.1315 25.76C30.8587 26.0963 29.6227 26.5586 28.4415 27.14C27.848 27.4884 27.3873 28.0243 27.132 28.6635C26.8767 29.3026 26.8413 30.0085 27.0315 30.6699C27.9215 33.8099 29.0314 37.77 29.7214 40.77C29.353 41.6928 29.2223 42.6934 29.3414 43.6799C29.3784 44.4751 29.6047 45.2499 30.0015 45.9399V45.9399C30.0901 46.0757 30.187 46.206 30.2915 46.33C29.6905 46.399 29.1226 46.6419 28.6575 47.0288C28.1924 47.4158 27.8502 47.93 27.673 48.5084C27.4957 49.0869 27.4911 49.7045 27.6596 50.2856C27.828 50.8667 28.1623 51.386 28.6215 51.7799C28.848 52.4694 28.9097 53.2023 28.8015 53.9199C28.5414 55.4834 28.15 57.0222 27.6315 58.52C27.2526 59.668 26.9388 60.8366 26.6915 62.02C26.2626 65.1216 26.8483 68.2787 28.3615 71.02C28.9577 72.1371 29.7311 73.1502 30.6515 74.02C30.4121 74.4796 30.2918 74.9918 30.3015 75.51C30.3015 78.94 34.5014 79.2999 38.9514 79.6799C42.8714 80.0199 48.0615 80.21 53.5715 80.21C59.0815 80.21 64.2814 80.0199 68.2014 79.6799C72.6514 79.2999 76.8514 78.94 76.8514 75.51C77.1731 75.0618 77.5418 74.6494 77.9514 74.2799C81.3014 71.1699 80.4214 67.1799 78.9514 63.2799C78.7 62.6523 78.4163 62.0382 78.1014 61.4399V61.4399Z" fill="white"></path> <path d="M52.2016 53.37C52.9963 52.9103 53.9318 52.7574 54.8316 52.94C55.4072 53.0222 55.9352 53.3056 56.3217 53.74C56.6016 54.1617 56.7859 54.6395 56.8616 55.14C56.8616 55.26 56.8616 55.3999 56.8616 55.4699C56.8111 55.5044 56.7526 55.5251 56.6917 55.5299C56.4176 55.5253 56.1479 55.4604 55.9016 55.3399C54.6063 54.8896 53.1969 54.8896 51.9016 55.3399C51.6616 55.4299 51.3816 55.63 51.1416 55.45C51.0541 55.3645 50.9968 55.2528 50.9788 55.1318C50.9607 55.0108 50.9829 54.8872 51.0416 54.7799C51.2658 54.1969 51.6727 53.7023 52.2016 53.37V53.37Z" fill="#FF3D2E"></path> <path d="M53.8527 111.95C78.6392 111.95 98.7327 110.217 98.7327 108.08C98.7327 105.943 78.6392 104.21 53.8527 104.21C29.0661 104.21 8.97266 105.943 8.97266 108.08C8.97266 110.217 29.0661 111.95 53.8527 111.95Z" fill="black"></path> <path d="M40.8125 22.02L41.3324 21.8199C41.6533 21.2344 42.0213 20.6759 42.4325 20.1499C43.1823 19.2066 43.9869 18.3085 44.8424 17.46C46.4206 16.0428 47.7699 14.3899 48.8424 12.5599C49.3443 11.5109 49.7332 10.4113 50.0024 9.27991C50.2524 8.34991 50.4825 7.40993 50.7625 6.48993C51.3925 4.48993 52.4525 2.3999 54.3225 1.3999C52.8825 3.0199 53.0224 5.61992 54.1324 7.47992C55.1907 9.08363 56.6304 10.3996 58.3225 11.3099L59.0024 11.71C59.7824 12.15 60.5724 12.5799 61.3724 12.9899C62.8424 13.7599 64.3725 14.4899 65.7925 15.2799L62.0525 17.0599C61.7501 17.2449 61.4064 17.3514 61.0525 17.3699C60.3998 17.3859 59.7515 17.2596 59.1525 16.9999C58.254 16.5185 57.2856 16.181 56.2825 15.9999C55.8379 15.9554 55.3903 16.0485 55.0004 16.2667C54.6104 16.4849 54.297 16.8177 54.1024 17.2199L54.3025 17.2999L60.3025 24.6699L59.8524 27.2799C55.2202 26.4572 50.4774 26.4776 45.8524 27.3399L45.7925 27.5299C44.828 27.1987 43.8119 27.0429 42.7925 27.0699L42.6725 24.27C42.2103 23.4024 41.5777 22.6371 40.8125 22.02Z" fill="#FFA537"></path> <path d="M28.8214 10.34C28.5245 11.2421 28.449 12.2025 28.6013 13.14C28.7386 13.9249 28.9878 14.6859 29.3413 15.4V15.4C29.795 16.3433 30.4531 17.1738 31.2678 17.8311C32.0825 18.4883 33.0334 18.956 34.0514 19.2C34.3076 19.273 34.568 19.3298 34.8313 19.37C36.1744 19.5919 37.476 20.0168 38.6914 20.63C39.4499 21.0036 40.1588 21.4705 40.8014 22.02C41.5445 22.6527 42.153 23.428 42.5913 24.3L42.7113 27.1C41.8268 27.0986 40.9483 27.2439 40.1113 27.53C39.914 27.5962 39.7205 27.673 39.5314 27.76L39.4613 27.58C39.1793 27.2843 38.8177 27.0768 38.42 26.9827C38.0224 26.8886 37.6059 26.9119 37.2213 27.05C36.7331 27.1657 36.2758 27.3855 35.8805 27.6945C35.4852 28.0034 35.1615 28.3942 34.9314 28.84C34.7448 29.1711 34.6467 29.5449 34.6467 29.925C34.6467 30.3051 34.7448 30.6788 34.9314 31.01L35.6013 31.14C34.7575 32.4351 34.2648 33.9271 34.1714 35.47C34.1191 36.3477 34.2034 37.2282 34.4214 38.08C34.1614 41.87 33.9513 45.08 33.7013 48.83C29.7013 45.07 26.9313 41.06 22.8613 38.03L23.0614 37.78C24.7514 34.91 25.4414 30.85 25.9314 27.23C26.3114 24.43 25.6014 21.6 25.6514 18.78C25.6649 17.89 25.7586 17.0031 25.9314 16.13C26.0651 15.4006 26.2522 14.6819 26.4913 13.98C26.9888 12.5574 27.6822 11.2111 28.5514 9.97998L28.8214 10.34Z" fill="#FFA537"></path> <path d="M71.7411 28.5399C72.0852 29.4353 72.1273 30.4185 71.8611 31.3399L71.8011 31.39C71.6691 31.1917 71.5255 31.0014 71.3711 30.82C70.0841 29.3074 68.3208 28.2776 66.3711 27.8999V27.73C67.3016 26.9921 68.4774 26.6347 69.6611 26.73C70.1273 26.8433 70.5595 27.0669 70.9214 27.3819C71.2833 27.6968 71.5644 28.0939 71.7411 28.5399V28.5399Z" fill="#1172AE"></path> <path d="M37.7615 87.9099L37.4514 87.5499C41.2746 85.5791 45.4265 84.325 49.7014 83.8499C49.8245 84.5858 50.0785 85.2937 50.4514 85.9399C50.607 86.2259 50.8302 86.4696 51.1014 86.6498C51.4361 86.8046 51.8032 86.8766 52.1715 86.8599C53.0783 86.9955 54.0029 86.7849 54.7615 86.2699C55.063 85.9201 55.291 85.5131 55.4319 85.0733C55.5728 84.6335 55.6236 84.1698 55.5814 83.7099V83.6399C59.1854 83.785 62.7568 84.383 66.2114 85.4199V85.5999C65.9214 86.5999 64.8715 86.9698 64.0215 87.4698C63.2007 87.9136 62.5501 88.617 62.1715 89.4698C62.0118 89.8145 61.9833 90.2057 62.0914 90.5699C62.2061 90.8065 62.3874 91.0044 62.613 91.1394C62.8386 91.2744 63.0988 91.3406 63.3615 91.3299C63.8893 91.2998 64.3999 91.1307 64.8414 90.8398C65.4862 90.4135 66.1539 90.023 66.8414 89.6699C67.1844 89.4929 67.5594 89.3867 67.9442 89.3575C68.329 89.3283 68.7157 89.3767 69.0814 89.4999C70.2714 92.7699 71.3314 96.0899 72.2314 99.4999C72.4814 100.37 72.7015 101.24 72.9215 102.11H72.7815C64.7815 103.57 61.6115 103.94 58.1115 107.94V108.29C54.8248 108.35 51.5415 108.253 48.2615 108V107.78C43.9215 105.1 39.6914 103.16 34.5914 103.11H34.5215C34.6282 102.21 34.7282 101.31 34.8215 100.41C35.2315 96.4799 35.6515 92.5599 37.2615 88.9799C37.4029 88.6119 37.57 88.2544 37.7615 87.9099V87.9099Z" fill="#FF3D2E"></path> <path d="M34.0912 106.18H34.0312C34.2212 105.18 34.3612 104.13 34.4812 103.09H34.5513C39.6513 103.14 43.8812 105.09 48.2212 107.76V107.98C45.3412 107.773 42.458 107.44 39.5713 106.98L34.0912 106.18Z" fill="#FFA537"></path> <path d="M77.8718 38.1799C77.5218 39.2699 77.7318 40.5099 77.2618 41.5599C76.9926 42.0995 76.6342 42.5897 76.2018 43.0099C74.9667 44.3148 73.6291 45.5187 72.2018 46.6099C72.0518 44.9299 71.8918 43.2399 71.7118 41.6099C71.919 41.335 72.1094 41.0478 72.2819 40.7499C73.074 39.3084 73.4522 37.6759 73.3745 36.0329C73.2969 34.3899 72.7664 32.8003 71.8418 31.4399L71.9019 31.39C72.1681 30.4685 72.126 29.4852 71.7819 28.5899C71.6048 28.1469 71.3246 27.7525 70.9646 27.4395C70.6046 27.1264 70.1751 26.9037 69.7118 26.7899C68.5281 26.6947 67.3524 27.0521 66.4219 27.7899V27.96C65.187 27.6848 63.9067 27.6848 62.6719 27.96C61.7319 27.72 60.7918 27.5099 59.8418 27.3399L60.2919 24.7299L61.0419 17.4199C61.3958 17.4014 61.7395 17.2948 62.0419 17.1099L65.7819 15.33C67.0621 16.0094 68.3009 16.764 69.4918 17.5899C69.9318 17.8999 70.3519 18.2199 70.7719 18.5899C71.1919 18.9599 71.5519 19.2399 71.9219 19.5899C73.6136 21.1619 74.9325 23.0924 75.7819 25.2399C76.0219 22.5899 78.0819 20.3999 79.6519 18.1199C80.8244 16.6881 81.4579 14.8905 81.4419 13.0399C82.0514 14.4453 82.5496 15.8965 82.9319 17.3799C83.1313 18.2356 83.2319 19.1113 83.2318 19.9899C83.2318 20.4499 82.9419 22.1799 82.8119 24.5499C82.7267 26.0621 82.7267 27.5778 82.8119 29.0899C83.0519 32.8199 83.9519 37.01 86.4319 40.33C84.2619 41.68 82.0818 43.1299 79.9718 44.6499L79.8219 44.4399C79.6519 42.9999 79.0018 41.6599 78.7018 40.2499C78.4978 39.5611 78.4744 38.8314 78.6338 38.1309C78.7931 37.4304 79.13 36.7827 79.6118 36.2499C78.8056 36.6461 78.1827 37.3371 77.8718 38.1799Z" fill="#FFA537"></path> <path d="M28.7023 98.1799C29.8209 97.9834 30.9715 98.0861 32.0375 98.4778C33.1035 98.8694 34.0471 99.536 34.7724 100.41C34.6857 101.31 34.5857 102.21 34.4723 103.11C34.3523 104.11 34.2124 105.18 34.0224 106.2C33.9324 106.74 33.8223 107.28 33.7023 107.81C33.6816 108.162 33.5231 108.492 33.261 108.727C32.999 108.963 32.6546 109.086 32.3024 109.07C31.0375 109.23 29.7573 109.23 28.4924 109.07C27.5583 108.975 26.648 108.718 25.8024 108.31C25.1684 107.993 24.63 107.513 24.2424 106.92C23.3324 105.48 23.6124 103.58 24.2424 101.98C24.3783 101.606 24.5455 101.245 24.7424 100.9C25.0391 100.322 25.4933 99.8403 26.0524 99.5099C26.4124 99.3291 26.805 99.2226 27.2071 99.1968C27.6091 99.1711 28.0122 99.2265 28.3924 99.3599L28.5224 98.9999L28.6123 98.1499L28.7023 98.1799Z" fill="#B19277"></path> <path d="M81.012 90.6799C79.402 91.1199 78.012 91.0899 76.552 91.9099H76.4919C75.8019 88.0499 75.222 84.2199 74.752 80.3599C76.4705 79.166 78.0561 77.7915 79.4819 76.2599C80.4221 75.3325 81.1578 74.2186 81.642 72.9899C83.032 68.8099 79.212 64.4799 79.772 60.1099C79.902 59.1099 80.2519 58.18 80.4619 57.21C80.8173 55.5835 80.7968 53.8973 80.402 52.2799C82.9439 49.8078 85.6143 47.4712 88.402 45.2799L88.522 45.4299C92.862 52.4299 95.5219 58.7699 95.3619 66.9299C95.2322 70.8237 94.4585 74.6691 93.072 78.3099C92.0468 81.2999 90.3814 84.0301 88.192 86.3099L90.192 88.58C88.5186 89.8719 86.7273 91.0035 84.8419 91.96C84.0219 92.35 82.8419 92.4899 82.3619 91.7499C82.1119 91.3899 82.0319 90.8499 81.6219 90.7499C81.429 90.6708 81.2179 90.6465 81.012 90.6799Z" fill="#FFA537"></path> <path d="M52.1713 86.8599C51.8029 86.8767 51.4359 86.8046 51.1012 86.6499C50.83 86.4696 50.6068 86.2259 50.4512 85.9399C50.0782 85.2937 49.8242 84.5858 49.7012 83.8499C51.0681 83.6823 52.4441 83.5988 53.8213 83.5999C54.4213 83.5999 55.0112 83.5999 55.5812 83.5999V83.6699C55.6233 84.1298 55.5725 84.5935 55.4316 85.0333C55.2908 85.4731 55.0628 85.8801 54.7612 86.2299C54.0082 86.7589 53.0831 86.9839 52.1713 86.8599V86.8599Z" fill="#1172AE"></path> <path d="M62.3916 44.4099C64.0452 44.9289 65.8172 44.9343 67.474 44.4255C69.1308 43.9167 70.5944 42.9176 71.6716 41.5599C71.8516 43.2399 72.0116 44.9299 72.1616 46.5599C72.2716 47.7799 72.3816 48.9899 72.4716 50.1999L72.5616 50.3599C72.6616 50.2799 72.7815 50.1899 72.9515 50.0399C75.1515 48.1499 77.5115 46.3099 79.9515 44.5599C82.0615 43.0399 84.2416 41.5599 86.4116 40.2399L87.8716 39.3398V39.4099C87.9604 40.2615 88.2281 41.0849 88.6572 41.8259C89.0863 42.5669 89.6671 43.2089 90.3616 43.7099C89.7016 44.1999 89.0416 44.7099 88.3616 45.2099C85.5739 47.4012 82.9035 49.7378 80.3616 52.2099C77.7686 54.7324 75.3245 57.4036 73.0416 60.2099L73.1716 60.3199C73.3916 67.1199 73.9015 73.7199 74.7115 80.3199C75.1815 84.1799 75.7115 88.0099 76.4515 91.8699C76.8315 93.9899 77.2417 96.1099 77.6917 98.2499H77.5316C76.6068 98.0143 75.6407 97.9909 74.7056 98.1814C73.7705 98.3719 72.8905 98.7713 72.1316 99.3499C71.2316 95.9899 70.1316 92.6699 68.9816 89.3499C68.5716 88.1899 68.1316 87.0398 67.6816 85.8998V85.7599L66.1316 85.2899C62.6769 84.253 59.1056 83.655 55.5016 83.5099C54.9316 83.5099 54.3416 83.5099 53.7416 83.5099C52.3644 83.5088 50.9885 83.5923 49.6216 83.7599C45.3466 84.2351 41.1948 85.4891 37.3716 87.4599L37.6816 87.8199C37.4794 88.1407 37.2989 88.4748 37.1416 88.8199C35.5316 92.3999 35.1415 96.3199 34.7015 100.25C33.9762 99.376 33.0328 98.7094 31.9668 98.3177C30.9008 97.9261 29.7501 97.8234 28.6316 98.0199H28.5316C28.9116 94.6866 29.2849 91.3532 29.6516 88.0199C29.9116 85.6299 30.1817 83.2399 30.4417 80.8499L30.5316 80.0699C31.1716 74.2399 31.6816 69.1799 32.1616 63.7499C32.3416 61.7499 32.5116 59.7499 32.6816 57.5499L27.1716 52.2198L19.1016 44.4199L16.1016 41.5199V41.4599C16.9983 39.5511 18.3266 37.877 19.9816 36.5699C20.0223 36.5511 20.0667 36.5413 20.1116 36.5413C20.1565 36.5413 20.2008 36.5511 20.2416 36.5699L20.3416 36.3899C21.1642 36.8585 21.9559 37.3795 22.7115 37.9499C26.7815 40.9499 29.6016 44.9499 33.5516 48.7499C33.8016 44.9599 34.0116 41.7499 34.2716 37.9999C34.9116 40.4799 36.7915 42.6499 40.5815 43.7099C42.1445 44.1974 43.8142 44.2287 45.3943 43.8C46.9744 43.3713 48.3993 42.5005 49.5016 41.2899L49.9016 41.6399C49.2416 42.0599 49.6516 42.8099 50.2716 43.4899C48.604 43.5109 46.9603 43.8894 45.4515 44.5999C44.8358 44.9271 44.3104 45.4011 43.9216 45.9799C43.7287 46.2722 43.6104 46.6075 43.5773 46.9562C43.5441 47.3049 43.5971 47.6564 43.7316 47.9799C44.2616 49.0699 45.7316 49.2699 46.9216 49.3299L49.1216 49.4199V49.5898C49.7 51.7217 50.1145 53.8947 50.3616 56.0898V56.0898C50.5073 55.9622 50.6647 55.8484 50.8315 55.7499C51.543 55.2951 52.3515 55.0142 53.1917 54.9299C54.3191 54.8255 55.4512 55.0736 56.4316 55.6399L56.5717 55.7299L56.6316 55.6498C56.6082 54.5775 56.7156 53.5063 56.9515 52.4599V52.4599L57.1616 52.3799C57.3735 52.2625 57.5597 52.1038 57.7091 51.9131C57.8585 51.7224 57.9683 51.5037 58.0316 51.2699C58.15 50.7962 58.1939 50.307 58.1616 49.8199V49.5699H58.9216C60.3116 49.4999 61.9815 49.1599 62.4515 47.8499C62.5756 47.3796 62.5553 46.8829 62.3929 46.4245C62.2306 45.9661 61.934 45.5672 61.5416 45.2798C61.2556 45.0561 60.939 44.8743 60.6016 44.7399L60.9417 43.8998C61.4129 44.1025 61.8973 44.2729 62.3916 44.4099V44.4099Z" fill="#1172AE"></path> <path d="M47.0415 49.3999C45.8215 49.3399 44.3814 49.1399 43.8514 48.0499C43.717 47.7265 43.664 47.375 43.6971 47.0262C43.7302 46.6775 43.8485 46.3423 44.0415 46.0499C44.4302 45.4711 44.9558 44.9971 45.5715 44.6699C47.0803 43.9595 48.7239 43.581 50.3914 43.5599C50.8993 44.087 51.455 44.5657 52.0515 44.9899C52.3921 45.2356 52.8014 45.3679 53.2214 45.3679C53.6414 45.3679 54.0508 45.2356 54.3914 44.9899C54.9162 44.6667 55.4144 44.3022 55.8814 43.8999L55.9714 43.9899C56.7214 44.0699 57.8314 44.2099 58.9714 44.3599C59.5742 44.4264 60.1658 44.5709 60.7314 44.7899C61.0688 44.9243 61.3854 45.1062 61.6715 45.33C62.0638 45.6173 62.3605 46.0162 62.5228 46.4746C62.6851 46.933 62.7055 47.4297 62.5814 47.8999C62.1114 49.2099 60.4415 49.5499 59.0515 49.6199H58.2915C57.0415 49.6199 55.7914 49.6199 54.5314 49.6199C53.2714 49.6199 51.8714 49.5399 50.5314 49.4899L49.3814 49.4299H49.2614L47.0415 49.3999Z" fill="#B19277"></path> <path d="M96.4711 37.7799C96.3285 37.7934 96.193 37.8481 96.0808 37.9372C95.9687 38.0263 95.8848 38.146 95.8394 38.2819C95.7939 38.4177 95.7889 38.5638 95.8248 38.7024C95.8608 38.8411 95.9362 38.9663 96.042 39.0629C96.1477 39.1595 96.2792 39.2233 96.4205 39.2467C96.5619 39.27 96.7069 39.2518 96.8381 39.1944C96.9693 39.1369 97.081 39.0425 97.1597 38.9228C97.2383 38.8031 97.2805 38.6632 97.2811 38.5199C97.2773 38.4179 97.2531 38.3176 97.2102 38.225C97.1673 38.1324 97.1064 38.0492 97.031 37.9804C96.9556 37.9115 96.8674 37.8583 96.7712 37.8239C96.6751 37.7895 96.573 37.7745 96.4711 37.7799V37.7799ZM96.4711 34.8599C96.6497 34.9414 96.8527 34.9516 97.0386 34.8884C97.2244 34.8252 97.3791 34.6934 97.4711 34.5199C97.5219 34.3956 97.536 34.2593 97.5115 34.1272C97.487 33.9952 97.4249 33.8729 97.3329 33.7751C97.2408 33.6773 97.1226 33.6081 96.9923 33.5756C96.862 33.5432 96.7251 33.5489 96.5979 33.5921C96.4707 33.6354 96.3587 33.7143 96.2751 33.8195C96.1916 33.9246 96.1401 34.0516 96.1267 34.1853C96.1133 34.3189 96.1386 34.4536 96.1997 34.5732C96.2608 34.6928 96.355 34.7923 96.4711 34.8599V34.8599ZM90.8011 34.3299C90.8734 34.255 90.9279 34.165 90.9609 34.0663C90.994 33.9677 91.0046 33.8628 90.9921 33.7595C90.9795 33.6563 90.944 33.5571 90.8883 33.4693C90.8326 33.3814 90.758 33.307 90.6699 33.2516C90.5819 33.1962 90.4826 33.1612 90.3793 33.1489C90.276 33.1367 90.1713 33.1477 90.0728 33.1811C89.9742 33.2144 89.8842 33.2693 89.8096 33.3418C89.7349 33.4142 89.6774 33.5024 89.6411 33.5999C89.5196 33.761 89.4661 33.9634 89.4923 34.1635C89.5185 34.3637 89.6222 34.5455 89.7811 34.6699C89.8722 34.721 89.9728 34.7528 90.0768 34.7633C90.1807 34.7737 90.2857 34.7627 90.3851 34.7308C90.4846 34.6989 90.5765 34.6468 90.6549 34.5778C90.7334 34.5089 90.7967 34.4245 90.8411 34.3299H90.8011ZM90.3611 43.7599C89.6666 43.2589 89.0858 42.6169 88.6567 41.8759C88.2276 41.1349 87.9599 40.3116 87.8711 39.4599V39.3899C88.3178 39.1099 88.7677 38.8399 89.2211 38.5799C88.8111 38.2199 87.6011 35.1399 88.8411 33.4599C89.0237 33.2155 89.2315 32.9909 89.4611 32.7899C89.7379 32.5425 90.0736 32.3704 90.436 32.2898C90.7985 32.2093 91.1756 32.2231 91.5311 32.3299L91.6711 32.3899C92.0271 31.5503 92.6934 30.8804 93.5311 30.5199C96.2211 29.6399 97.7811 31.3899 97.9211 32.0899V32.3899C98.5431 32.439 99.1324 32.6881 99.6011 33.0999C99.9019 33.3933 100.141 33.744 100.304 34.1313C100.468 34.5186 100.552 34.9346 100.552 35.3549C100.552 35.7752 100.468 36.1912 100.304 36.5785C100.141 36.9657 99.9019 37.3164 99.6011 37.6099C99.5111 37.6899 99.3212 37.7199 99.3212 37.6099L99.0911 37.6899C99.2994 38.1893 99.3518 38.7402 99.2411 39.2699C98.8411 40.8699 97.6512 42.1499 93.8112 41.3499C92.6012 42.1799 91.4911 42.9399 90.4011 43.7599H90.3611ZM95.0411 37.0599C95.3811 35.3599 93.8611 34.7499 92.7411 34.7699C92.4518 34.7549 92.1637 34.8162 91.9056 34.9479C91.6476 35.0796 91.4287 35.2769 91.2711 35.5199C90.8311 36.0699 91.1212 36.4599 91.9312 37.1999C93.0112 38.1999 93.5611 38.2699 94.3011 38.0199C94.8411 37.8499 94.9111 37.8899 95.0811 37.0599H95.0411ZM93.2611 32.9799C93.3892 33.0952 93.5496 33.1683 93.7207 33.1894C93.8918 33.2104 94.0652 33.1782 94.2174 33.0973C94.3696 33.0164 94.4931 32.8907 94.5714 32.7371C94.6497 32.5836 94.679 32.4097 94.655 32.239C94.6311 32.0683 94.5552 31.9091 94.4377 31.783C94.3203 31.6569 94.1667 31.5699 93.9982 31.534C93.8296 31.4981 93.6542 31.5149 93.4955 31.5821C93.3368 31.6493 93.2025 31.7638 93.1111 31.9099C92.9931 32.0731 92.9429 32.2756 92.9708 32.4751C92.9988 32.6745 93.1028 32.8554 93.2611 32.9799Z" fill="#B19277"></path> <path d="M87.2612 102.18L86.9012 102.26C86.6644 101.579 86.205 100.997 85.5973 100.609C84.9895 100.221 84.2689 100.048 83.5513 100.12C83.0877 100.231 82.6429 100.41 82.2312 100.65C81.6826 100.915 81.1714 101.251 80.7112 101.65C80.4785 101.844 80.287 102.084 80.1479 102.353C80.0089 102.623 79.925 102.917 79.9012 103.22L79.7312 103.29C79.479 102.545 79.0043 101.896 78.3712 101.43L78.4313 101.34C78.1979 100.333 77.9779 99.3332 77.7712 98.3398C77.3212 96.1998 76.9112 94.0799 76.5312 91.9599H76.5912C78.0512 91.1399 79.4413 91.1699 81.0513 90.7299C81.257 90.6701 81.4755 90.6701 81.6813 90.7299C82.0913 90.8699 82.1713 91.4099 82.4213 91.7299C82.9413 92.4699 84.0812 92.3299 84.9012 91.9399C86.7866 90.9835 88.5778 89.8518 90.2512 88.5599C93.3912 86.1599 96.4412 83.0099 96.1412 80.3699C97.3812 84.3699 96.7612 87.8699 94.8812 90.2399C91.3612 94.7099 92.6412 96.1199 92.3812 97.7399C92.274 98.7848 91.851 99.7723 91.1686 100.571C90.4862 101.369 89.5767 101.941 88.5613 102.21V102.21C88.3862 102.21 88.2118 102.23 88.0413 102.27C87.7786 102.271 87.5168 102.241 87.2612 102.18V102.18Z" fill="#FF3D2E"></path> <path d="M99.171 72.89C99.661 76.72 102.111 79.99 103.471 83.61C107.221 93.61 106.181 97.35 102.971 100.33C99.5609 103.5 95.301 104.76 90.661 105.21H90.3409C90.3409 104.95 90.341 104.68 90.271 104.42C90.161 103.55 89.861 102.54 89.031 102.25C88.8674 102.191 88.6949 102.161 88.521 102.16C89.5364 101.891 90.4459 101.319 91.1283 100.521C91.8107 99.7224 92.2337 98.7349 92.3409 97.69C92.6009 96.07 91.3409 94.69 94.8409 90.19C96.7209 87.82 97.341 84.32 96.101 80.32C96.401 82.96 93.3509 86.11 90.2109 88.51L88.2109 86.24C90.4003 83.9602 92.0658 81.23 93.0909 78.24H93.2109C94.9847 75.5967 96.4193 72.741 97.481 69.74C98.281 67.6 99.4809 65.32 101.721 64.74C100.739 65.8382 100.004 67.1335 99.5643 68.5392C99.1245 69.9448 98.9905 71.4283 99.171 72.89V72.89Z" fill="#FFA537"></path> <path d="M72.7607 102.45C72.3038 103.088 72.0094 103.827 71.9031 104.604C71.7968 105.382 71.8818 106.173 72.1508 106.91L71.8307 107.03C67.2727 107.769 62.6676 108.18 58.0508 108.26V107.91C61.5508 103.91 64.7107 103.54 72.7207 102.08H72.8607L72.9807 102.18C72.9024 102.266 72.829 102.356 72.7607 102.45V102.45Z" fill="#FFA537"></path> <path d="M97.3926 33.4499C97.5515 33.5743 97.6552 33.7561 97.6814 33.9562C97.7076 34.1563 97.6541 34.3588 97.5326 34.5199C97.4406 34.6934 97.2859 34.8251 97.1001 34.8883C96.9142 34.9515 96.7112 34.9413 96.5326 34.8598C96.3789 34.7293 96.2773 34.548 96.2463 34.3488C96.2153 34.1496 96.257 33.9459 96.3637 33.7749C96.4705 33.6039 96.6352 33.477 96.8277 33.4173C97.0203 33.3576 97.2278 33.3692 97.4126 33.4499H97.3926Z" fill="#E7CCA0"></path> <path d="M96.472 37.7799C96.6146 37.7934 96.7503 37.8481 96.8624 37.9372C96.9746 38.0263 97.0585 38.1461 97.1039 38.2819C97.1493 38.4177 97.1544 38.5638 97.1184 38.7024C97.0824 38.8411 97.007 38.9663 96.9012 39.0629C96.7955 39.1595 96.6639 39.2233 96.5226 39.2467C96.3813 39.27 96.2363 39.2519 96.1051 39.1944C95.9739 39.1369 95.8622 39.0425 95.7836 38.9228C95.7049 38.8031 95.6628 38.6632 95.6621 38.5199C95.6659 38.4179 95.69 38.3176 95.7329 38.225C95.7758 38.1324 95.8369 38.0492 95.9122 37.9804C95.9876 37.9115 96.0759 37.8583 96.172 37.8239C96.2681 37.7895 96.3701 37.7745 96.472 37.7799Z" fill="#E7CCA0"></path> <path d="M92.7825 34.7699C93.9025 34.7699 95.4224 35.3599 95.0824 37.0599C94.9124 37.8899 94.8424 37.8499 94.3424 38.0599C93.6024 38.3099 93.0524 38.2499 91.9724 37.2399C91.1624 36.4999 90.8725 36.1099 91.3125 35.5599C91.4652 35.3095 91.6818 35.1042 91.9402 34.9654C92.1986 34.8265 92.4893 34.7591 92.7825 34.7699V34.7699Z" fill="#E7CCA0"></path> <path d="M94.1427 31.5799C94.2884 31.7125 94.3828 31.8922 94.4094 32.0874C94.4361 32.2827 94.3932 32.4811 94.2883 32.6479C94.1835 32.8148 94.0233 32.9394 93.8358 33.0001C93.6483 33.0608 93.4454 33.0536 93.2627 32.9798C93.117 32.8472 93.0226 32.6675 92.996 32.4723C92.9694 32.277 93.0122 32.0786 93.1171 31.9118C93.2219 31.7449 93.3821 31.6203 93.5696 31.5596C93.7571 31.4989 93.96 31.5061 94.1427 31.5799V31.5799Z" fill="#E7CCA0"></path> <path d="M90.7026 33.2599C90.8422 33.3952 90.9313 33.5742 90.9549 33.7672C90.9785 33.9602 90.9351 34.1554 90.8322 34.3204C90.7293 34.4853 90.5729 34.61 90.3892 34.6736C90.2055 34.7372 90.0056 34.7359 89.8227 34.6699C89.6638 34.5455 89.56 34.3636 89.5339 34.1635C89.5077 33.9634 89.5611 33.761 89.6827 33.5999C89.7747 33.4213 89.9329 33.2859 90.1235 33.2224C90.314 33.1588 90.5218 33.1723 90.7026 33.2599Z" fill="#E7CCA0"></path> <path d="M87.9922 102.23C88.1673 102.23 88.3418 102.21 88.5122 102.17V102.17C88.6861 102.171 88.8586 102.201 89.0222 102.26C89.8522 102.55 90.1522 103.56 90.2622 104.43C90.2622 104.69 90.3222 104.96 90.3322 105.22C90.3693 105.715 90.3357 106.214 90.2322 106.7C90.0937 107.454 89.6715 108.127 89.0522 108.58C87.9888 109.129 86.7596 109.264 85.6022 108.96L85.4922 108.86C86.0692 108.175 86.4921 107.373 86.7322 106.51C87.2452 105.153 87.2874 103.663 86.8522 102.28L87.2122 102.2C87.4701 102.24 87.7319 102.251 87.9922 102.23V102.23Z" fill="#B19277"></path> <path d="M86.8612 102.28C87.2965 103.664 87.2542 105.153 86.7412 106.51C86.5011 107.373 86.0782 108.175 85.5012 108.86C85.2802 109.113 85.0202 109.329 84.7312 109.5C83.2412 110.38 81.3612 109.88 79.7312 109.32L80.0012 108.52C80.5862 107.952 81.0135 107.243 81.2412 106.46L79.8812 104.33C79.8664 103.99 79.8058 103.654 79.7012 103.33L79.8712 103.26C79.895 102.958 79.979 102.663 80.118 102.393C80.2571 102.124 80.4486 101.885 80.6813 101.69C81.1415 101.291 81.6525 100.955 82.2012 100.69C82.6129 100.45 83.0577 100.271 83.5212 100.16C84.2348 100.09 84.9513 100.26 85.5566 100.644C86.162 101.029 86.6212 101.604 86.8612 102.28Z" fill="#B19277"></path> <path d="M79.7721 60.12C79.2121 64.49 83.0321 68.82 81.6421 73C81.158 74.2287 80.4222 75.3426 79.4821 76.27C78.0563 77.8016 76.4706 79.1761 74.7521 80.37C73.9421 73.81 73.432 67.21 73.212 60.37L73.082 60.26C75.3649 57.4537 77.8091 54.7825 80.4021 52.26C80.797 53.8774 80.8174 55.5635 80.462 57.19C80.262 58.18 79.9021 59.18 79.7721 60.12Z" fill="#FF3D2E"></path> <path d="M79.8715 104.33L81.2315 106.46C81.0037 107.243 80.5764 107.953 79.9915 108.52C79.4872 109.043 78.8694 109.443 78.1859 109.689C77.5024 109.936 76.7715 110.022 76.0496 109.94C75.3276 109.859 74.634 109.613 74.0222 109.221C73.4105 108.829 72.897 108.302 72.5215 107.68C72.3723 107.437 72.2484 107.179 72.1515 106.91C71.8826 106.173 71.7975 105.382 71.9038 104.604C72.0101 103.827 72.3046 103.088 72.7615 102.45C72.8327 102.352 72.9094 102.259 72.9915 102.17C73.5478 101.539 74.2802 101.088 75.0945 100.876C75.9088 100.664 76.768 100.7 77.5615 100.98C77.8359 101.093 78.0946 101.241 78.3314 101.42C78.9645 101.886 79.4393 102.535 79.6915 103.28C79.8007 103.62 79.8612 103.973 79.8715 104.33V104.33Z" fill="#B19277"></path> <path d="M79.8021 44.3999L79.952 44.6099C77.512 46.3599 75.152 48.1999 72.952 50.0899C72.782 50.2399 72.6621 50.3299 72.5621 50.4099L72.472 50.2499C72.382 49.0399 72.2721 47.8299 72.1621 46.6099C73.5894 45.5187 74.9271 44.3148 76.1621 43.0099C76.5945 42.5897 76.9528 42.0995 77.222 41.5599C77.692 40.5599 77.482 39.2699 77.832 38.1799C78.1226 37.3145 78.7399 36.5968 79.5521 36.1799C79.0703 36.7127 78.7335 37.3605 78.5741 38.061C78.4147 38.7615 78.4381 39.4911 78.6421 40.1799C78.9821 41.6199 79.6321 42.9599 79.8021 44.3999Z" fill="#FF3D2E"></path> <path d="M78.3916 101.33L78.3315 101.42C78.0947 101.241 77.836 101.093 77.5616 100.98C76.7681 100.7 75.9089 100.664 75.0946 100.876C74.2803 101.088 73.5479 101.539 72.9916 102.17L72.8716 102.07C72.6516 101.2 72.4316 100.33 72.1816 99.46C72.9406 98.8814 73.8205 98.4819 74.7556 98.2914C75.6907 98.101 76.6568 98.1244 77.5815 98.3599H77.7416C77.9482 99.3333 78.1649 100.323 78.3916 101.33Z" fill="#B19277"></path> <path d="M67.7213 86.0299C68.1713 87.1699 68.6114 88.3199 69.0214 89.4799C68.6557 89.3567 68.2688 89.3083 67.884 89.3375C67.4992 89.3667 67.1243 89.4729 66.7814 89.6499C66.0938 90.003 65.4261 90.3936 64.7814 90.8199C64.3398 91.1109 63.8293 91.2799 63.3014 91.3099C63.0387 91.3207 62.7786 91.2545 62.553 91.1195C62.3274 90.9845 62.1461 90.7865 62.0314 90.5499C61.9232 90.1858 61.9516 89.7946 62.1113 89.45C62.4899 88.5971 63.1405 87.8937 63.9613 87.45C64.8113 86.95 65.8614 86.53 66.1514 85.58V85.3999L67.7013 85.8699L67.7213 86.0299Z" fill="#FFA537"></path> <path d="M62.3626 33.5599C62.6926 32.8099 63.0126 32.0399 63.3626 31.2799C63.5026 32.3899 64.8226 33.0599 64.7826 34.1799C65.1826 33.5499 65.5526 32.9099 65.8926 32.2499C66.4056 32.8724 66.7683 33.6047 66.9525 34.39C67.1111 34.9403 67.054 35.5303 66.7926 36.0399C66.4226 36.8199 65.2626 37.51 63.2526 37.2C62.3896 37.1612 61.5751 36.7895 60.9803 36.163C60.3854 35.5364 60.0566 34.7038 60.0626 33.8399C60.0576 33.2115 60.179 32.5884 60.4195 32.0078C60.66 31.4272 61.0146 30.9008 61.4626 30.46C61.3452 30.7791 61.3112 31.1228 61.3637 31.4588C61.4162 31.7948 61.5535 32.1118 61.7626 32.3799C62.0126 32.7499 62.4626 33.1799 62.3626 33.5599Z" fill="#FF3D2E"></path> <path d="M62.6018 27.93C62.3345 27.988 62.0708 28.0615 61.8119 28.15C60.1467 28.7445 58.6916 29.8129 57.6256 31.2236C56.5596 32.6342 55.9292 34.3257 55.8119 36.09C55.668 37.8008 56.1076 39.5099 57.0591 40.939C58.0106 42.3681 59.4179 43.4329 61.0519 43.96L60.7118 44.8C60.1462 44.581 59.5546 44.4365 58.9518 44.37C57.8118 44.22 56.7018 44.08 55.9518 44L55.8618 43.91C56.6418 43.21 56.7619 42.69 56.5319 42C56.2419 41.12 52.3719 40.83 50.2819 41.58C50.1838 41.6165 50.0899 41.6634 50.0018 41.72L49.6018 41.37C49.9539 40.9719 50.2655 40.5398 50.5319 40.08C51.3849 38.5337 51.7586 36.7685 51.6055 35.0091C51.4523 33.2497 50.7793 31.5757 49.6719 30.2C48.6149 28.9596 47.228 28.0442 45.6719 27.56L45.7318 27.37C50.3568 26.5077 55.0996 26.4873 59.7318 27.31C60.7218 27.48 61.6618 27.69 62.6018 27.93Z" fill="#1172AE"></path> <path d="M60.9714 17.3699L60.2214 24.6799L54.2214 17.3099L54.0215 17.2299C54.216 16.8276 54.5295 16.4948 54.9194 16.2766C55.3094 16.0584 55.7568 15.9653 56.2014 16.0099C57.2045 16.191 58.1731 16.5284 59.0715 17.0099C59.6713 17.2662 60.3195 17.389 60.9714 17.3699Z" fill="#FF3D2E"></path> <path d="M57.0919 52.55C56.8559 53.5964 56.7485 54.6676 56.772 55.74L56.7119 55.82L56.572 55.73C56.282 54.92 55.982 53.73 54.922 53.38C53.3828 54.2143 51.9026 55.1531 50.4919 56.19V56.19C50.2449 53.9949 49.8303 51.8219 49.252 49.69V49.52H49.392L50.542 49.58C50.618 50.372 50.8348 51.1441 51.182 51.86C51.3121 52.1825 51.5431 52.4543 51.8406 52.6345C52.138 52.8148 52.4858 52.8939 52.8319 52.86C53.1091 52.7668 53.3604 52.6096 53.5654 52.4011C53.7705 52.1926 53.9234 51.9387 54.012 51.66C54.222 51.12 54.302 50.31 54.542 49.77C54.5715 50.5856 54.8392 51.3747 55.312 52.04C55.5353 52.2774 55.8185 52.4501 56.1318 52.5399C56.4451 52.6296 56.7768 52.6331 57.0919 52.55V52.55Z" fill="black"></path> <path d="M50.3909 43.57C49.7709 42.89 49.3909 42.1399 50.0209 41.7199C50.109 41.6633 50.2029 41.6165 50.3009 41.58C52.3909 40.83 56.3009 41.1199 56.5509 41.9999C56.7809 42.6899 56.6609 43.2099 55.8809 43.9099C55.4139 44.3122 54.9157 44.6767 54.3909 44.9999C54.0503 45.2456 53.6409 45.3779 53.2209 45.3779C52.8009 45.3779 52.3916 45.2456 52.0509 44.9999C51.4545 44.5757 50.8988 44.097 50.3909 43.57V43.57Z" fill="black"></path> <path d="M47.3319 30.27C47.7798 30.7109 48.1346 31.2372 48.3751 31.8179C48.6156 32.3985 48.7369 33.0215 48.7319 33.65C48.7381 34.5148 48.4095 35.3486 47.8149 35.9767C47.2204 36.6049 46.4059 36.9787 45.542 37.02C43.542 37.33 42.3719 36.63 42.0019 35.85C41.746 35.3424 41.6889 34.7575 41.8419 34.21C42.024 33.421 42.387 32.6849 42.902 32.06C43.242 32.72 43.612 33.37 44.012 33.99C44.012 32.87 45.292 32.2 45.432 31.09L46.432 33.49C46.212 33.03 46.712 32.59 47.022 32.2C47.2345 31.9317 47.3746 31.6134 47.4288 31.2755C47.4831 30.9375 47.4497 30.5914 47.3319 30.27Z" fill="#FF3D2E"></path> <path d="M39.4725 27.5799L39.5426 27.7599C37.9018 28.4621 36.5087 29.6392 35.5426 31.1399L34.8726 31.0099C34.6859 30.6788 34.5879 30.305 34.5879 29.9249C34.5879 29.5448 34.6859 29.171 34.8726 28.8399C35.1027 28.3941 35.4265 28.0033 35.8218 27.6944C36.217 27.3854 36.6744 27.1656 37.1626 27.0499C37.5564 26.8968 37.9872 26.8654 38.399 26.9599C38.8109 27.0544 39.1848 27.2704 39.4725 27.5799Z" fill="#1172AE"></path> <path d="M27.2619 52.3398L32.7719 57.6699C32.6019 59.8299 32.4319 61.8699 32.2519 63.8699C29.8919 63.3199 27.3119 62.6199 25.9219 60.6399C24.7519 58.9799 24.6819 56.7899 24.9219 54.7699L27.2619 52.3398Z" fill="#FFA537"></path> <path d="M32.2617 63.87C31.7817 69.3 31.2617 74.36 30.6317 80.19L30.5418 80.97L28.1618 80.7C27.8488 79.4557 27.2611 78.2974 26.4418 77.31C25.8187 76.3833 25.2671 75.4104 24.7918 74.4C23.3672 71.3201 22.6401 67.9637 22.6626 64.5704C22.6851 61.1771 23.4565 57.8307 24.9218 54.77C24.6918 56.77 24.7618 58.98 25.9218 60.64C27.2618 62.62 29.8717 63.32 32.2617 63.87Z" fill="#FF3D2E"></path> <path d="M30.5117 80.9698C30.2517 83.3598 29.9817 85.7499 29.7217 88.1399L27.3917 87.8799C26.0491 85.5053 25.359 82.8175 25.3917 80.0898C25.7826 80.3882 26.2339 80.5974 26.7141 80.7028C27.1944 80.8081 27.6919 80.8072 28.1718 80.6999L30.5117 80.9698Z" fill="#FF3D2E"></path> <path d="M29.7224 88.1799C29.3491 91.5133 28.9758 94.8466 28.6024 98.1799L28.5125 99.0299L28.3825 99.39C28.0023 99.2566 27.5992 99.2011 27.1972 99.2269C26.7951 99.2526 26.4025 99.3591 26.0425 99.5399C25.4834 99.8703 25.0291 100.352 24.7324 100.93H24.1325C23.8881 100.624 23.5728 100.382 23.2139 100.225C22.8549 100.068 22.4632 100.001 22.0725 100.03V99.4899C19.7653 99.1542 17.5427 98.3839 15.5225 97.2199C13.5925 95.9299 12.1425 93.6499 12.5225 91.3599C12.9238 91.9867 13.5279 92.4567 14.2341 92.6915C14.9403 92.9263 15.7058 92.9116 16.4025 92.6499C15.5729 92.4728 14.8053 92.0786 14.1781 91.5076C13.5509 90.9366 13.0864 90.2092 12.8324 89.3999C12.3441 87.7807 12.2112 86.0752 12.4425 84.3999C13.1125 87.0799 16.4425 88.1399 19.1825 88.0299C21.9225 87.9199 24.7925 87.0999 27.4225 87.9399L29.7224 88.1799Z" fill="#FF3D2E"></path> <path d="M18.9713 75.5499L24.7613 74.3999C25.2366 75.4104 25.7883 76.3832 26.4113 77.3099C27.2306 78.2973 27.8183 79.4557 28.1313 80.7C27.6515 80.8072 27.154 80.8082 26.6738 80.7028C26.1935 80.5974 25.7421 80.3882 25.3513 80.0899C25.3185 82.8176 26.0086 85.5054 27.3513 87.8799C24.7213 87.0399 21.8813 87.8799 19.1113 87.9699C16.3413 88.0599 13.0413 87.0199 12.3713 84.3399C12.1399 86.0152 12.273 87.7207 12.7613 89.3399C13.0153 90.1492 13.4796 90.8766 14.1069 91.4476C14.7341 92.0186 15.5017 92.4128 16.3312 92.5899C15.6346 92.8516 14.8692 92.8663 14.163 92.6315C13.4568 92.3967 12.8525 91.9267 12.4512 91.2999C12.0612 93.5899 13.5112 95.8699 15.4512 97.1599C17.4714 98.3239 19.6941 99.0942 22.0013 99.4299V99.9699H21.8113C21.3368 100.093 20.8916 100.309 20.5018 100.606C20.112 100.903 19.7854 101.275 19.5413 101.7L19.3013 101.53C18.9068 101.169 18.3912 100.968 17.8563 100.968C17.3213 100.968 16.8059 101.169 16.4113 101.53C15.9637 101.951 15.6212 102.472 15.4113 103.05H15.3513C10.4913 103.12 6.51126 99.0499 4.22126 94.8199C1.55292 90.0731 0.500013 84.5874 1.22126 79.1899C1.65051 76.9132 2.25572 74.6731 3.03131 72.4899C4.31874 68.8083 5.27912 65.0203 5.90131 61.1699C6.43131 57.3099 6.12134 52.8599 3.18134 50.3099C4.99173 51.1037 6.57794 52.3323 7.79914 53.8867C9.02033 55.4411 9.83868 57.2731 10.1813 59.2199C10.5713 61.5299 10.2613 63.8799 10.4013 66.2199C10.5413 68.5599 11.2214 71.04 13.0714 72.46C13.6078 72.8693 14.1963 73.2056 14.8214 73.46C16.3914 74.06 17.9513 74.5099 18.9713 75.5499Z" fill="#FFA537"></path> <path d="M27.2626 52.3398L24.9126 54.7699C23.4473 57.8306 22.6759 61.177 22.6534 64.5703C22.631 67.9636 23.358 71.32 24.7826 74.3998L18.9925 75.5499C17.9925 74.5499 16.4125 74.0599 14.9925 73.4299L15.0626 73.2798C11.3526 63.9398 13.1626 52.6498 19.1626 44.5898H19.2125L27.2626 52.3398Z" fill="#FFA537"></path> <path d="M20.3311 108.41C19.813 108.248 19.3472 107.951 18.9811 107.55C18.6751 107.17 18.4528 106.729 18.3288 106.257C18.2047 105.785 18.1817 105.292 18.2611 104.81C18.4308 103.851 18.7986 102.938 19.3411 102.13C19.4242 101.992 19.5143 101.858 19.6111 101.73C19.8552 101.305 20.1818 100.933 20.5716 100.636C20.9614 100.339 21.4066 100.123 21.8811 99.9999H22.0712C22.4619 99.9712 22.8536 100.038 23.2126 100.195C23.5715 100.352 23.8868 100.594 24.1311 100.9H24.7311C24.5343 101.245 24.367 101.606 24.2311 101.98C23.6211 103.58 23.3411 105.48 24.2311 106.92C24.6188 107.513 25.1572 107.993 25.7912 108.31V108.96L22.9811 108.84C22.0808 108.835 21.1867 108.69 20.3311 108.41Z" fill="#B19277"></path> <path d="M12.692 32.3799C12.8727 32.5991 13.1068 32.7678 13.3719 32.8699C13.5719 32.9499 13.8519 32.9699 13.9719 32.7899C14.0116 32.7184 14.0274 32.636 14.0166 32.555C14.0057 32.4739 13.969 32.3984 13.9119 32.3399C13.7944 32.2206 13.6451 32.1373 13.4819 32.0999C13.3853 32.0656 13.2843 32.0454 13.182 32.0399C12.762 31.9599 12.542 32.0999 12.692 32.3799ZM10.3519 32.3799V32.0099C10.7639 31.6703 11.2513 31.4342 11.7731 31.3211C12.295 31.208 12.8362 31.2213 13.3519 31.3599C14.2605 31.5917 15.1006 32.0374 15.802 32.6599L15.9219 32.5199C16.3098 32.3993 16.7204 32.3702 17.1214 32.4348C17.5224 32.4994 17.903 32.6561 18.2333 32.8924C18.5637 33.1288 18.8347 33.4385 19.0253 33.7972C19.2159 34.1559 19.3208 34.5539 19.3319 34.9599C19.3061 35.2728 19.3367 35.5878 19.4219 35.8899H19.5219C19.8619 36.0566 20.1953 36.2366 20.5219 36.4299L20.4219 36.6099C20.3812 36.5911 20.3368 36.5813 20.2919 36.5813C20.2471 36.5813 20.2027 36.5911 20.1619 36.6099C18.507 37.917 17.1786 39.5911 16.2819 41.4999V41.5599L15.072 40.3899C14.0643 40.7966 12.9735 40.9544 11.8919 40.8499C10.8929 40.6897 9.93094 40.351 9.05195 39.8499C8.51032 39.6085 8.03891 39.2335 7.68196 38.7599C7.42633 38.3199 7.29499 37.8187 7.30195 37.3099C7.27859 36.7092 7.43148 36.1147 7.74189 35.5999L7.45186 35.5299C7.32468 35.2259 7.27458 34.8953 7.30598 34.5673C7.33738 34.2393 7.44937 33.9242 7.63191 33.6499C8.01036 33.1045 8.55906 32.7001 9.19197 32.4999C9.57203 32.4125 9.96289 32.3822 10.3519 32.4099V32.3799ZM17.1419 34.3799C18.2219 34.4599 17.8319 33.5499 17.7619 33.5099C17.582 33.3714 17.3676 33.2849 17.1419 33.2599C17.0374 33.2516 16.9333 33.2799 16.8475 33.3402C16.7617 33.4004 16.6996 33.4887 16.6719 33.5899C16.6351 33.7554 16.6633 33.9287 16.7508 34.074C16.8383 34.2192 16.9784 34.3252 17.1419 34.3699V34.3799ZM14.7719 37.9699C15.7719 37.9699 18.2619 36.5399 17.1419 35.3399C16.8789 35.0978 16.5595 34.9256 16.2127 34.8387C15.866 34.7519 15.503 34.7533 15.1569 34.8428C14.8109 34.9323 14.4928 35.107 14.2316 35.3511C13.9705 35.5951 13.7746 35.9007 13.6619 36.2399C13.506 36.5834 13.4881 36.9736 13.6119 37.3299C13.7263 37.5335 13.8959 37.7007 14.1011 37.8121C14.3064 37.9236 14.5389 37.9748 14.7719 37.9599V37.9699ZM11.3619 33.6599C11.4719 33.4099 11.1619 33.1799 10.9119 33.0699C10.7016 32.9611 10.4687 32.9028 10.2319 32.8999C10.1136 32.9041 10.0009 32.951 9.9145 33.0319C9.82811 33.1128 9.77391 33.2222 9.76191 33.3399V33.3399C9.34191 34.0099 10.6819 34.0599 11.1419 33.8299C11.2358 33.8007 11.3146 33.7361 11.3619 33.6499V33.6599ZM10.9119 37.0899C11.0189 36.9782 11.0786 36.8296 11.0786 36.6749C11.0786 36.5203 11.0189 36.3716 10.9119 36.2599C10.7731 36.0774 10.587 35.9361 10.3737 35.8515C10.1605 35.767 9.92813 35.7422 9.70185 35.7799C9.47588 35.8192 9.26445 35.9177 9.08882 36.0652C8.91319 36.2128 8.77962 36.4041 8.70186 36.6199V36.7399C8.77656 36.9654 8.91219 37.1659 9.09358 37.3193C9.27496 37.4726 9.49517 37.5729 9.72993 37.6091C9.96469 37.6453 10.2049 37.616 10.424 37.5244C10.6432 37.4328 10.8327 37.2824 10.9719 37.0899H10.9119Z" fill="#B19277"></path> <path d="M20.3323 108.41C19.5523 108.41 18.7623 108.51 17.9723 108.53C17.4962 108.586 17.0135 108.537 16.5588 108.385C16.1041 108.232 15.6887 107.982 15.3423 107.65C15.0377 107.166 14.8503 106.617 14.7947 106.048C14.7392 105.478 14.8171 104.904 15.0224 104.37C15.1276 103.933 15.2681 103.505 15.4424 103.09C15.6523 102.512 15.9948 101.991 16.4424 101.57C16.837 101.209 17.3525 101.008 17.8874 101.008C18.4223 101.008 18.9378 101.209 19.3323 101.57L19.5724 101.74C19.4756 101.869 19.3855 102.002 19.3024 102.14C18.76 102.948 18.3921 103.861 18.2223 104.82C18.1429 105.302 18.1659 105.795 18.29 106.267C18.414 106.739 18.6364 107.18 18.9424 107.56C19.3208 107.963 19.8009 108.257 20.3323 108.41V108.41Z" fill="#B19277"></path> <path d="M16.6713 33.58C16.699 33.4788 16.7611 33.3905 16.8469 33.3302C16.9327 33.27 17.0368 33.2416 17.1413 33.25C17.367 33.275 17.5814 33.3614 17.7613 33.5C17.8313 33.5 18.2213 34.45 17.1413 34.37C17.0565 34.3511 16.9763 34.3156 16.9052 34.2657C16.8342 34.2157 16.7737 34.1522 16.7272 34.0788C16.6808 34.0054 16.6494 33.9235 16.6346 33.8379C16.6198 33.7523 16.6221 33.6647 16.6413 33.58H16.6713Z" fill="#E7CCA0"></path> <path d="M17.1427 35.33C18.2627 36.53 15.7827 37.92 14.7727 37.96C14.5386 37.9739 14.3054 37.9212 14.1001 37.8079C13.8948 37.6946 13.7257 37.5254 13.6127 37.32C13.4889 36.9637 13.5068 36.5734 13.6627 36.23C13.7754 35.8907 13.9713 35.5852 14.2324 35.3411C14.4936 35.0971 14.8116 34.9223 15.1577 34.8328C15.5038 34.7433 15.8668 34.7419 16.2135 34.8288C16.5602 34.9156 16.8797 35.088 17.1427 35.33Z" fill="#E7CCA0"></path> <path d="M13.9116 32.3399C13.9687 32.3984 14.0054 32.4739 14.0163 32.555C14.0271 32.636 14.0113 32.7184 13.9716 32.7899C13.8516 32.9699 13.5716 32.9499 13.3716 32.8699C13.1065 32.7678 12.8724 32.5991 12.6917 32.3799C12.5417 32.0999 12.7617 31.9599 13.1817 32.0399C13.284 32.0454 13.385 32.0656 13.4816 32.0999C13.6448 32.1373 13.7941 32.2206 13.9116 32.3399Z" fill="#E7CCA0"></path> <path d="M10.9121 33.06C11.1621 33.17 11.472 33.3999 11.362 33.6499C11.3418 33.6982 11.3119 33.7418 11.274 33.7779C11.2361 33.8141 11.1912 33.842 11.142 33.86C10.682 34.09 9.34203 34.04 9.76203 33.37C9.77404 33.2522 9.82823 33.1428 9.91462 33.0619C10.001 32.9811 10.1137 32.9342 10.232 32.93C10.4657 32.9204 10.6984 32.9649 10.9121 33.06V33.06Z" fill="#E7CCA0"></path> <path d="M11.0726 36.69C11.06 36.8332 11.0042 36.9692 10.9126 37.08C10.7734 37.2725 10.5838 37.4228 10.3646 37.5144C10.1455 37.606 9.90529 37.6353 9.67053 37.5991C9.43577 37.5629 9.21556 37.4626 9.03418 37.3093C8.8528 37.1559 8.71729 36.9554 8.64258 36.7299V36.6099C8.72034 36.3941 8.85379 36.2028 9.02942 36.0552C9.20505 35.9077 9.41661 35.8093 9.64258 35.77C9.86885 35.7322 10.1011 35.757 10.3143 35.8416C10.5276 35.9261 10.7137 36.0674 10.8525 36.2499C10.976 36.3657 11.0541 36.5218 11.0726 36.69Z" fill="#E7CCA0"></path> <path d="M103.471 83.6099C107.221 93.6099 106.181 97.35 102.971 100.33C100.686 102.409 97.8971 103.854 94.8809 104.52C99.1109 101.85 100.941 96.52 100.541 91.45C100.241 87.65 98.8009 84.0399 97.8209 80.3499C96.8409 76.6599 96.3209 72.6299 97.8209 69.1099C98.6309 67.1999 99.8209 65.3499 101.821 64.7999C100.844 65.8914 100.111 67.1781 99.6697 68.5746C99.2283 69.9711 99.089 71.4454 99.2609 72.8999C99.6609 76.7199 102.111 79.9899 103.471 83.6099Z" fill="#FABA12"></path> <path d="M96.2615 80.7999C97.3215 84.5999 96.6815 87.9199 94.8715 90.1999C91.3515 94.6699 92.6315 96.0799 92.3715 97.6999C92.262 98.7125 91.8593 99.6712 91.2126 100.458C90.566 101.245 89.7036 101.826 88.7314 102.13C88.1477 102.067 87.5586 102.182 87.0415 102.46H86.9614C86.9426 102.388 86.9193 102.318 86.8915 102.25C86.6546 101.569 86.1954 100.987 85.5876 100.599C84.9799 100.211 84.2591 100.038 83.5415 100.11C83.0779 100.221 82.6331 100.4 82.2214 100.64C81.6728 100.905 81.1616 101.241 80.7014 101.64C80.4687 101.835 80.2773 102.074 80.1382 102.343C79.9991 102.613 79.9153 102.907 79.8915 103.21L79.7214 103.27C79.4691 102.528 78.9942 101.882 78.3615 101.42L78.4215 101.33C78.1882 100.323 77.9681 99.3232 77.7615 98.3299C77.3115 96.1899 76.9015 94.0699 76.5215 91.9499H76.5814C78.0414 91.1299 79.4315 91.1598 81.0415 90.7198C81.2473 90.6601 81.4658 90.6601 81.6715 90.7198C82.0815 90.8598 82.1615 91.3998 82.4115 91.7198C82.9315 92.4598 84.0715 92.3199 84.8915 91.9299C86.7769 90.9735 88.5681 89.8418 90.2415 88.5499C93.3815 86.1499 96.4315 82.9999 96.1315 80.3599C96.1515 80.4899 96.1915 80.6399 96.2615 80.7999Z" fill="#FF3D2E"></path> <path d="M88.5513 45.41C92.8913 52.41 95.5512 58.75 95.3912 66.91C95.2615 70.8037 94.4876 74.6491 93.1012 78.29C92.1045 81.1399 90.5319 83.7541 88.4812 85.97V85.97C89.9712 83.02 91.4812 78.5 91.2312 75.21C89.7856 77.1387 87.9954 78.783 85.9512 80.06C87.1112 77.47 88.1112 75.84 88.7312 72.84C90.7312 63.33 90.5813 55.77 86.5413 46.94L86.4712 46.86C87.1212 46.32 87.7812 45.79 88.4712 45.27L88.5513 45.41Z" fill="#FABA12"></path> <path d="M73.2625 60.1799C73.4825 66.9599 73.9825 73.8799 74.7925 80.4199C75.2625 84.2799 75.7925 88.1099 76.5325 91.9699C76.9125 94.0899 77.3225 96.2099 77.7725 98.3499H77.6124C77.17 98.2438 76.7173 98.1868 76.2625 98.1799V98.0599C73.1425 86.0599 71.5925 74.54 70.8125 60.39C75.7125 53.39 82.5525 47.9899 89.4225 42.8999C89.7153 43.245 90.0514 43.5509 90.4225 43.8099C89.7625 44.2999 89.1025 44.8099 88.4225 45.3099C87.7425 45.8099 87.1025 46.3099 86.4225 46.8999C84.3325 48.6299 82.3024 50.4499 80.3624 52.3399C77.8485 54.816 75.478 57.4336 73.2625 60.1799V60.1799Z" fill="#3B9AEA"></path> <path d="M88.7018 102.18C88.8172 102.208 88.9284 102.252 89.0319 102.31C89.8619 102.6 90.1619 103.61 90.2719 104.48C90.2719 104.67 90.2719 104.87 90.2719 105.06C89.773 104.785 89.2063 104.658 88.6378 104.693C88.0694 104.729 87.5228 104.925 87.0619 105.26V105.2C87.2318 104.315 87.1838 103.402 86.9219 102.54H87.0018C87.5186 102.25 88.1117 102.124 88.7018 102.18V102.18ZM87.9918 102.28C88.1669 102.28 88.3414 102.26 88.5118 102.22C88.3387 102.204 88.1642 102.207 87.9918 102.23V102.28Z" fill="#E7CCA0"></path> <path d="M72.5621 50.4099C72.6621 50.3299 72.7819 50.2399 72.9519 50.0899C75.1519 48.1999 77.5119 46.3599 79.9519 44.6099C81.4119 43.6099 82.952 42.5399 84.402 41.6099C85.072 41.1699 85.742 40.75 86.402 40.33L87.862 39.4299V39.4999C87.942 39.975 88.059 40.4431 88.212 40.8999C82.112 43.9899 77.212 48.8999 72.112 53.4899C71.542 54.0099 70.802 54.5599 70.112 54.2999C69.422 54.0399 69.212 53.2399 69.112 52.5299C68.6226 49.7815 68.4115 46.9907 68.482 44.2V44.1099C69.7593 43.5648 70.875 42.7005 71.722 41.5999C71.902 43.2799 72.062 44.9699 72.212 46.5999C72.322 47.8199 72.432 49.0299 72.522 50.2399L72.5621 50.4099Z" fill="#3B9AEA"></path> <path d="M86.9319 102.49C87.1938 103.352 87.2419 104.265 87.0719 105.15C86.7051 104.58 86.2133 104.102 85.6339 103.75C85.0545 103.399 84.4026 103.184 83.7279 103.123C83.0532 103.061 82.3732 103.154 81.7397 103.394C81.1063 103.635 80.5359 104.016 80.0719 104.51C80.0034 104.401 79.9264 104.297 79.8418 104.2C79.8249 103.887 79.7679 103.578 79.6719 103.28V103.28L79.8418 103.22C79.8656 102.917 79.9495 102.623 80.0886 102.353C80.2277 102.084 80.4192 101.845 80.6519 101.65C81.1121 101.251 81.6232 100.915 82.1719 100.65C82.5836 100.41 83.0283 100.231 83.4918 100.12C84.2094 100.048 84.9302 100.221 85.538 100.609C86.1457 100.997 86.605 101.579 86.8418 102.26C86.8773 102.334 86.9074 102.411 86.9319 102.49V102.49Z" fill="#E7CCA0"></path> <path d="M82.7725 24.4698C82.6872 25.982 82.6872 27.4978 82.7725 29.0099C83.0125 32.7399 83.9125 36.9299 86.3925 40.2499C85.7225 40.6699 85.0525 41.0898 84.3925 41.5298L84.3424 41.4599C83.5624 39.7899 82.5524 37.8799 81.7124 35.6799C81.1792 34.2967 80.7611 32.8719 80.4624 31.4199C79.9487 27.886 80.0163 24.2919 80.6625 20.7798C78.8048 22.4322 77.345 24.4834 76.3925 26.7798H76.2224C76.1036 26.1948 75.9398 25.6197 75.7324 25.0599V25.0599C75.9724 22.4099 78.0324 20.2199 79.6024 17.9399C80.775 16.5081 81.4084 14.7105 81.3925 12.8599C82.002 14.2653 82.5002 15.7164 82.8824 17.1999C83.0819 18.0556 83.1826 18.9313 83.1825 19.8099C83.1825 20.3699 82.9025 22.0998 82.7725 24.4698Z" fill="#FABA12"></path> <path d="M79.6912 103.28C79.7872 103.578 79.8443 103.887 79.8611 104.2C79.4422 103.802 78.9418 103.499 78.3946 103.312C77.8473 103.126 77.2663 103.06 76.6912 103.12C74.8549 103.239 73.1321 104.05 71.8711 105.39C71.8278 104.338 72.1415 103.302 72.7612 102.45C72.8323 102.352 72.9091 102.259 72.9911 102.17C73.5474 101.539 74.2798 101.088 75.0942 100.876C75.9085 100.664 76.7676 100.7 77.5612 100.98C77.8356 101.093 78.0943 101.241 78.3311 101.42C78.9639 101.882 79.4389 102.528 79.6912 103.27V103.28Z" fill="#E7CCA0"></path> <path d="M75.7412 25.1799C75.9486 25.7397 76.1124 26.3148 76.2312 26.8998C76.3676 27.6147 76.4247 28.3425 76.4012 29.0699H76.3013C76.0491 27.146 75.4128 25.2923 74.4302 23.6191C73.4476 21.9459 72.1386 20.4873 70.5812 19.3299C67.4571 17.0224 63.9252 15.326 60.1713 14.3299C58.6083 13.935 57.0927 13.3716 55.6512 12.6498C54.1983 11.9098 53.0953 10.6273 52.5812 9.0799C50.5215 13.4137 47.1903 17.017 43.0312 19.4099C43.6012 18.7299 44.2212 18.0899 44.8412 17.4099C46.4194 15.9927 47.7687 14.3399 48.8412 12.5099C49.3431 11.4608 49.732 10.3613 50.0012 9.22986C50.2512 8.29986 50.4812 7.35988 50.7612 6.43988C51.3912 4.43988 52.4513 2.34985 54.3213 1.34985C52.8813 2.96985 53.0212 5.56987 54.1312 7.42987C55.1895 9.03358 56.6292 10.3496 58.3213 11.2599L59.0012 11.6599C59.7812 12.0999 60.5712 12.5299 61.3712 12.9399C62.8412 13.7099 64.3713 14.4399 65.7913 15.2299C67.0715 15.9093 68.3103 16.6639 69.5012 17.4899C69.9412 17.7999 70.3613 18.1199 70.7812 18.4899C71.2012 18.8599 71.5613 19.1399 71.9313 19.4899C73.623 21.0619 74.9419 22.9924 75.7913 25.1399L75.7412 25.1799Z" fill="#FABA12"></path> <path d="M73.1825 38.18C73.0153 39.0833 72.6975 39.952 72.2425 40.75C72.07 41.0479 71.8797 41.3351 71.6725 41.61C70.8255 42.7106 69.7098 43.5749 68.4325 44.12C66.5305 44.9174 64.4124 45.0375 62.4325 44.46C62.1425 44.38 61.8724 44.29 61.6024 44.19C61.4354 44.1405 61.2718 44.0804 61.1124 44.01C59.4785 43.4829 58.0712 42.4181 57.1196 40.989C56.1681 39.5599 55.7286 37.8508 55.8725 36.14C55.9889 34.2665 56.6882 32.4764 57.8725 31.02V31.02C57.5716 31.947 57.4803 32.9292 57.6048 33.8959C57.7293 34.8625 58.0665 35.7894 58.5924 36.61C59.6688 38.245 61.2226 39.509 63.0425 40.23C64.7863 41.0054 66.7155 41.2656 68.6024 40.98C69.5125 40.8376 70.3856 40.517 71.1715 40.0365C71.9575 39.556 72.6409 38.9251 73.1825 38.18V38.18Z" fill="#D9EDF1"></path> <path d="M71.7411 28.5399C72.1075 29.4522 72.1741 30.4574 71.9312 31.4099H71.8511V31.3399C71.719 31.1417 71.5755 30.9514 71.4211 30.77C70.1341 29.2574 68.3709 28.2276 66.4211 27.8499L66.1211 27.7999C67.1664 27.031 68.445 26.646 69.7411 26.71C70.1947 26.8366 70.6121 27.0683 70.9596 27.3862C71.3071 27.7041 71.5748 28.0993 71.7411 28.5399V28.5399Z" fill="#3B9AEA"></path> <path d="M68.6019 85.96L68.542 86.14L67.762 85.89L66.2119 85.4199C62.7573 84.3831 59.1859 83.7851 55.5819 83.64C55.0119 83.64 54.422 83.64 53.822 83.64C52.4449 83.6389 51.0688 83.7224 49.7019 83.89C45.6357 84.3498 41.6785 85.5031 38.002 87.2999V87.2199C42.122 82.7199 48.6319 81.2199 54.7319 81.2199C56.6712 81.1841 58.6052 81.4335 60.4719 81.96C63.3281 82.9729 66.0565 84.3153 68.6019 85.96V85.96Z" fill="#3B9AEA"></path> <path d="M65.6218 35.96C65.8482 36.1923 65.9862 36.4966 66.0118 36.8199C65.1561 37.2728 64.1675 37.4075 63.2218 37.2C62.3146 37.1129 61.4693 36.7009 60.8418 36.0399L60.9518 35.95C60.985 35.6736 61.073 35.4067 61.2103 35.1646C61.3477 34.9226 61.5317 34.7102 61.7518 34.5399C61.9038 35.0512 62.2072 35.5044 62.6218 35.8399C62.8607 35.4128 63.176 35.0332 63.5519 34.7199C64.0178 35.0442 64.3486 35.5281 64.4818 36.08C64.7592 35.773 65.1006 35.5307 65.4818 35.3699C65.3118 35.5399 65.4718 35.79 65.6218 35.96Z" fill="#FFA537"></path> <path d="M61.6721 45.3399C62.0645 45.6272 62.3611 46.0262 62.5234 46.4846C62.6858 46.943 62.7061 47.4397 62.582 47.9099C62.5242 48.0557 62.454 48.1962 62.3721 48.33L62.2421 48.2599C61.9778 47.6448 61.5793 47.0966 61.0758 46.6554C60.5723 46.2142 59.9765 45.8912 59.332 45.71C57.8425 45.1316 56.26 44.83 54.6621 44.8199C55.091 44.5476 55.4988 44.2434 55.8821 43.9099L55.972 43.9999C56.722 44.0799 57.832 44.2199 58.972 44.3699C59.5749 44.4364 60.1665 44.581 60.7321 44.7999C60.9002 44.8698 61.0638 44.9499 61.222 45.0399C61.3824 45.1235 61.5333 45.2241 61.6721 45.3399V45.3399Z" fill="#E7CCA0"></path> <path d="M55.4625 26.89C56.9069 26.9339 58.3469 27.0742 59.7726 27.31C60.7726 27.48 61.6625 27.69 62.6025 27.93C62.3352 27.9881 62.0715 28.0615 61.8126 28.15C61.2296 28.3458 60.6722 28.6111 60.1526 28.94C58.0729 28.437 55.9422 28.1753 53.8026 28.16C51.797 28.1255 49.7915 28.2392 47.8026 28.5V28.5C47.1793 28.0863 46.5076 27.7504 45.8026 27.5L45.1426 27.3C45.9426 27.2 46.8025 27.11 47.7025 27.04C50.2831 26.8207 52.8754 26.7706 55.4625 26.89Z" fill="#3B9AEA"></path> <path d="M55.4609 26.89C52.8491 26.7874 50.2334 26.8575 47.6309 27.0999V26.9699C47.3972 26.1369 47.4646 25.2483 47.821 24.46C48.131 23.78 48.6509 23.2099 49.0209 22.5599C49.231 22.2473 49.3626 21.8887 49.4043 21.5143C49.4461 21.14 49.3969 20.7611 49.2609 20.4099C50.2478 21.5345 50.9356 22.8895 51.2609 24.3499C51.6754 23.9816 52.0149 23.5368 52.2609 23.0399C52.5809 24.7199 55.0709 25.25 55.4609 26.89Z" fill="#FF3D2E"></path> <path d="M51.7212 44.76C49.4818 44.6347 47.2553 45.1739 45.3213 46.31C44.7138 46.6116 44.2143 47.0936 43.8913 47.69H43.7413C43.6179 47.1123 43.7256 46.5093 44.0413 46.01C44.4301 45.4312 44.9556 44.9572 45.5713 44.63C47.0801 43.9196 48.7237 43.5411 50.3913 43.52C50.8019 43.9671 51.2465 44.3817 51.7212 44.76V44.76Z" fill="#E7CCA0"></path> <path d="M50.652 31.6599C51.3308 32.9628 51.6769 34.4134 51.6595 35.8824C51.642 37.3515 51.2616 38.7934 50.552 40.0799C50.2856 40.5397 49.9741 40.9718 49.622 41.3699L49.3319 41.6899C48.2171 42.7865 46.8261 43.5607 45.3067 43.9305C43.7872 44.3002 42.196 44.2516 40.7019 43.7899C38.8423 43.3464 37.1593 42.3533 35.872 40.9399C35.1631 40.1145 34.6564 39.1353 34.392 38.0799C34.174 37.2281 34.0897 36.3475 34.142 35.4698C34.1321 35.29 34.1321 35.1097 34.142 34.9299H34.292C34.8226 36.1129 35.5976 37.1701 36.5663 38.0319C37.535 38.8937 38.6753 39.5406 39.912 39.9299C41.5799 40.4753 43.3669 40.5446 45.0721 40.1299C46.9546 39.6759 48.5886 38.5113 49.632 36.8799C50.1441 36.1174 50.4966 35.2593 50.6685 34.3571C50.8403 33.4548 50.8279 32.5272 50.632 31.6299L50.652 31.6599Z" fill="#D9EDF1"></path> <path d="M47.4812 35.58C47.5496 35.6495 47.6028 35.7326 47.6372 35.8239C47.6716 35.9151 47.6867 36.0126 47.6813 36.11C47.0738 36.6186 46.329 36.9353 45.5413 37.02C44.6073 37.2221 43.6321 37.0949 42.7812 36.66V36.58C42.8032 36.2694 42.8923 35.9671 43.0425 35.6943C43.1927 35.4215 43.4005 35.1846 43.6512 35C43.6681 35.1706 43.7323 35.333 43.8365 35.4691C43.9408 35.6051 44.0809 35.7094 44.2412 35.77C44.3212 35.77 44.4212 35.77 44.4712 35.77C44.4805 35.7339 44.4805 35.696 44.4712 35.66C44.5224 35.4025 44.5224 35.1375 44.4712 34.88C44.8767 35.0102 45.2281 35.2702 45.4712 35.62C45.7927 35.0298 46.2935 34.557 46.9012 34.27C46.8207 34.4008 46.7781 34.5514 46.7781 34.705C46.7781 34.8586 46.8207 35.0092 46.9012 35.14C47.077 35.3085 47.2716 35.4561 47.4812 35.58V35.58Z" fill="#FFA537"></path> <path d="M39.7611 27.6199L39.5211 27.7199C37.8803 28.422 36.4872 29.5992 35.5211 31.0999C35.3911 31.2999 35.2711 31.5099 35.1511 31.7199C34.8694 31.2928 34.6982 30.8024 34.6528 30.2927C34.6074 29.7831 34.6893 29.2701 34.8911 28.7999C35.1212 28.3541 35.445 27.9634 35.8403 27.6544C36.2356 27.3455 36.693 27.1256 37.1811 27.01C37.6267 26.874 38.1003 26.8589 38.5536 26.9661C39.0069 27.0732 39.4236 27.2989 39.7611 27.6199Z" fill="#3B9AEA"></path> <path d="M25.9022 16.1799C26.0359 15.4505 26.223 14.7319 26.4622 14.0299C26.9597 12.6073 27.6531 11.2611 28.5222 10.0299L28.8223 10.4299C28.5254 11.3321 28.4498 12.2925 28.6022 13.2299C28.7395 14.0116 28.9887 14.7694 29.3422 15.4799V15.4799C29.7959 16.4233 30.454 17.2537 31.2687 17.911C32.0834 18.5683 33.0343 19.0359 34.0522 19.2799C34.3084 19.3529 34.5688 19.4098 34.8322 19.45C36.1752 19.6719 37.4769 20.0968 38.6923 20.71C39.2562 20.9917 39.7919 21.3265 40.2922 21.71C38.1622 20.91 35.7922 21 33.5322 20.71C31.1122 20.34 28.5323 19.1999 27.6823 16.8799C27.4123 18.7599 28.1322 20.61 28.5922 22.45C29.326 25.4239 29.4284 28.5186 28.8927 31.5345C28.357 34.5504 27.1952 37.4206 25.4822 39.96L25.2422 40.2199C24.4764 39.5053 23.6683 38.8374 22.8223 38.2199L23.0222 37.9699C24.7122 35.0999 25.4022 31.0399 25.8922 27.4199C26.2722 24.6199 25.5622 21.7899 25.6122 18.9699C25.6204 18.0328 25.7175 17.0987 25.9022 16.1799V16.1799Z" fill="#FABA12"></path> <path d="M20.3615 36.65L20.4614 36.47C21.2841 36.9386 22.0757 37.4596 22.8314 38.03C23.6775 38.6475 24.4856 39.3154 25.2515 40.03C28.1315 42.69 30.5515 45.82 33.6715 48.79C33.9215 45 34.1315 41.79 34.3915 38.04C34.6558 39.0954 35.1626 40.0746 35.8715 40.9V40.9C36.0004 43.6774 35.8934 46.4607 35.5515 49.22C35.4215 49.99 35.1615 50.88 34.4215 51.13C33.6815 51.38 32.6315 50.13 32.1315 49.52C28.8715 45.77 28.8915 45 24.1315 40.77C22.6609 39.4397 21.0279 38.3006 19.2715 37.38C19.544 37.1142 19.8311 36.8639 20.1315 36.63C20.2079 36.6068 20.2902 36.6139 20.3615 36.65Z" fill="#3B9AEA"></path> <path d="M32.2615 63.8699C32.4415 61.8699 32.6115 59.8699 32.7815 57.6699L27.2715 52.3398L21.2715 46.5199L19.2715 44.5199L16.2715 41.6199V41.5599C16.5018 41.0676 16.7623 40.5901 17.0515 40.1299C23.0515 45.6899 29.8415 51.2499 34.2715 56.8099C34.9715 57.6899 34.4815 60.7299 34.3915 61.8099C33.8115 69.2999 33.2515 75.2899 32.3915 82.7499C32.0815 85.3499 31.7715 87.9398 31.3915 90.5298C31.0115 93.1198 30.5015 95.5299 29.9115 97.9799C29.5458 97.9784 29.1809 98.0119 28.8215 98.0799H28.7214C29.1014 94.7466 29.4748 91.4132 29.8414 88.0799C30.1014 85.6899 30.3715 83.2999 30.6315 80.9099C30.6315 80.7599 30.6315 80.6099 30.6315 80.4599C30.6315 80.3099 30.6315 80.2399 30.6315 80.1299C31.2615 74.3599 31.7515 69.2999 32.2615 63.8699Z" fill="#3B9AEA"></path> <path d="M31.0824 102.58C31.0703 102.621 31.0499 102.659 31.0223 102.692C30.9948 102.724 30.9608 102.751 30.9225 102.77C28.6767 102.259 26.3274 102.462 24.2024 103.35C24.1073 103.4 23.9985 103.418 23.8925 103.4L23.8125 103.35C23.9141 102.877 24.051 102.412 24.2224 101.96C24.3024 101.75 24.3824 101.54 24.4824 101.34C24.5524 101.182 24.6325 101.028 24.7224 100.88C25.0191 100.302 25.4733 99.8203 26.0325 99.4899C26.4355 99.2754 26.8859 99.1654 27.3424 99.1699C27.6826 99.1742 28.0199 99.2316 28.3424 99.3399C28.6601 99.4395 28.9604 99.588 29.2324 99.7799C30.1601 100.466 30.8153 101.458 31.0824 102.58V102.58Z" fill="#E7CCA0"></path> <path d="M24.4712 101.33C24.3712 101.53 24.2912 101.74 24.2112 101.95C24.0398 102.402 23.9028 102.867 23.8013 103.34C23.7628 103.308 23.7291 103.271 23.7012 103.23C23.3983 102.872 23.0217 102.584 22.597 102.386C22.1724 102.187 21.7099 102.083 21.2412 102.08C20.7705 102.083 20.3061 102.189 19.881 102.391C19.4559 102.593 19.0804 102.886 18.7812 103.25V103.19C18.9527 102.822 19.1463 102.464 19.3612 102.12C19.4443 101.982 19.5344 101.848 19.6312 101.72C19.8739 101.297 20.1989 100.926 20.587 100.631C20.9752 100.336 21.4187 100.121 21.8912 99.9999H22.0812C22.4718 99.9712 22.8637 100.038 23.2227 100.195C23.5816 100.352 23.8969 100.594 24.1412 100.9C24.1912 100.96 24.4212 101.24 24.4712 101.33Z" fill="#E7CCA0"></path> <path d="M19.1711 44.5399L21.1711 46.5399C17.044 53.9288 15.609 62.5209 17.111 70.8499C17.3317 72.5351 17.9449 74.1449 18.9011 75.5499C17.9011 74.5499 16.3411 74.08 14.9011 73.45L14.961 73.2999C11.251 63.9599 13.0611 52.6699 19.0611 44.6099L19.1711 44.5399Z" fill="#FABA12"></path> <path d="M19.6219 101.72C19.5251 101.849 19.435 101.982 19.3519 102.12C19.137 102.464 18.9434 102.822 18.772 103.19C18.5614 102.921 18.2781 102.717 17.9556 102.604C17.633 102.49 17.2847 102.472 16.9519 102.55C16.3002 102.711 15.7096 103.059 15.252 103.55C15.312 103.37 15.3819 103.2 15.4519 103.03C15.6617 102.452 16.0043 101.931 16.4519 101.51C16.9066 101.167 17.4663 100.993 18.0353 101.016C18.6043 101.04 19.1474 101.261 19.572 101.64L19.6219 101.72Z" fill="#E7CCA0"></path> <path d="M11.8422 102.33C8.60223 101.01 5.96227 97.9699 4.26227 94.7899C1.59394 90.043 0.541028 84.5574 1.26227 79.1599C1.69153 76.8832 2.29673 74.6432 3.07233 72.46C4.35975 68.7783 5.32013 64.9903 5.94233 61.14C6.36987 58.6143 6.19163 56.0233 5.42231 53.58H5.52228C8.29228 58.03 7.82233 63.72 6.94233 68.89C6.06233 74.06 4.94224 79.48 6.60224 84.45C5.62222 83.6721 4.88351 82.6316 4.47223 81.45C4.22729 85.3288 4.52347 89.2228 5.35224 93.02C6.37224 96.74 8.50223 100.35 11.8422 102.33Z" fill="#FABA12"></path> <path d="M47.6211 26.9699C47.3875 26.1369 47.4548 25.2483 47.8112 24.46C48.1212 23.78 48.6412 23.2099 49.0112 22.5599C49.2212 22.2473 49.3528 21.8887 49.3946 21.5143C49.4364 21.14 49.3871 20.7611 49.2511 20.4099C50.238 21.5345 50.9259 22.8895 51.2511 24.3499C51.6656 23.9816 52.0052 23.5368 52.2511 23.0399C52.5011 24.7199 54.9911 25.25 55.3811 26.89" stroke="#FF3D2E" stroke-width="0.75" stroke-linecap="round" stroke-linejoin="round"></path> <path d="M42.832 36.58C42.854 36.2694 42.9432 35.9671 43.0934 35.6943C43.2436 35.4215 43.4512 35.1846 43.702 35C43.7189 35.1706 43.7831 35.333 43.8873 35.4691C43.9916 35.6051 44.1318 35.7094 44.2921 35.77C44.3721 35.77 44.4721 35.77 44.5221 35.77C44.5314 35.7339 44.5314 35.696 44.5221 35.66C44.5733 35.4025 44.5733 35.1375 44.5221 34.88C44.9276 35.0102 45.279 35.2702 45.5221 35.62C45.8436 35.0298 46.3443 34.557 46.952 34.27C46.8715 34.4008 46.829 34.5514 46.829 34.705C46.829 34.8586 46.8715 35.0092 46.952 35.14C47.0829 35.3077 47.2304 35.4618 47.3921 35.6C47.4605 35.6695 47.5137 35.7526 47.5481 35.8439C47.5825 35.9351 47.5975 36.0326 47.592 36.13C47.592 36.13 47.592 36.13 47.592 36.18" stroke="#FFA537" stroke-width="0.5" stroke-linecap="round" stroke-linejoin="round"></path> <path d="M60.9512 35.95C60.9844 35.6736 61.0724 35.4067 61.2097 35.1646C61.3471 34.9226 61.5311 34.7102 61.7512 34.5399C61.9032 35.0512 62.2065 35.5044 62.6212 35.8399C62.8601 35.4128 63.1754 35.0332 63.5513 34.7199C64.0172 35.0442 64.348 35.5281 64.4812 36.08C64.7586 35.773 65.1 35.5307 65.4812 35.3699C65.3412 35.5399 65.4812 35.79 65.6512 35.96C65.8776 36.1923 66.0156 36.4966 66.0413 36.8199C66.0462 36.8798 66.0462 36.94 66.0413 36.9999" stroke="#FFA537" stroke-width="0.5" stroke-linecap="round" stroke-linejoin="round"></path> <path d="M66.1611 85.5999C65.8711 86.5999 64.8211 86.9698 63.9711 87.4698C63.1502 87.9136 62.4997 88.617 62.1211 89.4698C61.9614 89.8145 61.933 90.2057 62.0411 90.5699C62.1558 90.8065 62.337 91.0044 62.5626 91.1394C62.7882 91.2744 63.0485 91.3406 63.3112 91.3299C63.8391 91.2998 64.3496 91.1307 64.7911 90.8398C65.4359 90.4135 66.1036 90.023 66.7911 89.6699C67.1341 89.4929 67.509 89.3867 67.8938 89.3575C68.2786 89.3283 68.6654 89.3767 69.0311 89.4999" stroke="#FF3D2E" stroke-width="0.5" stroke-linecap="round" stroke-linejoin="round"></path> <path d="M34.5508 103.08C39.6508 103.13 43.8807 105.08 48.2207 107.75" stroke="#FF3D2E" stroke-width="0.5" stroke-linecap="round" stroke-linejoin="round"></path> <path d="M58.0508 107.91L58.3807 107.55C61.7507 103.89 64.9607 103.49 72.7207 102.08" stroke="#FF3D2E" stroke-width="0.5" stroke-linecap="round" stroke-linejoin="round"></path> <path d="M72.1113 46.65H72.1614C73.5887 45.5587 74.9263 44.3549 76.1614 43.05C76.5938 42.6297 76.9521 42.1395 77.2213 41.6C77.6913 40.6 77.4813 39.31 77.8313 38.22C78.1218 37.3545 78.7392 36.6368 79.5514 36.22C79.0695 36.7528 78.7327 37.4005 78.5734 38.101C78.414 38.8015 78.4374 39.5312 78.6414 40.22C78.9414 41.63 79.5914 42.97 79.7614 44.41" stroke="#FF3D2E" stroke-width="0.5" stroke-linecap="round" stroke-linejoin="round"></path> <path d="M76.5508 91.9099C78.0108 91.0899 79.4007 91.1199 81.0107 90.6799C81.2165 90.6202 81.435 90.6202 81.6407 90.6799C82.0507 90.8199 82.1307 91.3599 82.3807 91.6799C82.9007 92.4199 84.0407 92.28 84.8607 91.89C86.7461 90.9335 88.5373 89.8019 90.2107 88.5099C93.3507 86.1099 96.4007 82.9599 96.1007 80.3199C96.1507 80.4799 96.1907 80.6299 96.2307 80.7899C97.2907 84.5899 96.6507 87.9099 94.8407 90.1899C91.3207 94.6599 92.6007 96.0699 92.3407 97.6899C92.2312 98.7026 91.8285 99.6612 91.1819 100.448C90.5353 101.235 89.6729 101.816 88.7007 102.12H88.5208" stroke="#FF3D2E" stroke-width="0.5" stroke-linecap="round" stroke-linejoin="round"></path> <path d="M80.402 52.2899C80.7968 53.9073 80.8173 55.5934 80.4619 57.2199C80.2519 58.2199 79.902 59.1299 79.772 60.1199C79.212 64.4899 83.032 68.8199 81.642 72.9999C81.1578 74.2286 80.4221 75.3425 79.4819 76.27C78.0561 77.8016 76.4705 79.176 74.752 80.3699" stroke="#FF3D2E" stroke-width="0.5" stroke-linecap="round" stroke-linejoin="round"></path> <path d="M54.2227 17.33L60.2227 24.7L60.9727 17.39" stroke="#FF3D2E" stroke-width="0.75" stroke-linecap="round" stroke-linejoin="round"></path> <path d="M56.2227 16.1399L57.4727 17.5799V16.4599" stroke="#FF3D2E" stroke-width="0.75" stroke-linecap="round" stroke-linejoin="round"></path> <path d="M71.6715 41.56C71.8787 41.285 72.069 40.9979 72.2415 40.7C72.6966 39.902 73.0144 39.0332 73.1815 38.13C73.6277 35.8182 73.1502 33.4238 71.8515 31.46V31.39C71.7194 31.1917 71.5759 31.0014 71.4215 30.82C70.1345 29.3074 68.3713 28.2776 66.4215 27.8999L66.1215 27.8499C64.9785 27.6361 63.8034 27.6633 62.6715 27.9299C62.4042 27.988 62.1404 28.0614 61.8815 28.1499C61.2985 28.3457 60.7411 28.611 60.2215 28.94C59.3404 29.4663 58.5586 30.1433 57.9115 30.94C56.7272 32.3963 56.0279 34.1865 55.9115 36.06C55.7676 37.7708 56.2072 39.4799 57.1587 40.909C58.1102 42.3381 59.5176 43.4029 61.1515 43.9299C61.3108 44.0003 61.4745 44.0604 61.6415 44.1099C61.9115 44.2099 62.1815 44.3 62.4715 44.38C64.4513 44.9574 66.5695 44.8374 68.4715 44.0399C69.7308 43.4975 70.832 42.6442 71.6715 41.56V41.56Z" stroke="black" stroke-width="0.75" stroke-linecap="round" stroke-linejoin="round"></path> <path d="M45.0613 27.36C44.2966 27.1683 43.5094 27.0808 42.7212 27.1C41.8367 27.0986 40.9582 27.2439 40.1212 27.53L39.7813 27.66L39.5413 27.76C37.9005 28.4622 36.5073 29.6394 35.5413 31.14C35.4113 31.34 35.2913 31.55 35.1713 31.76C34.6407 32.744 34.3014 33.8197 34.1713 34.93C34.1614 35.1099 34.1614 35.2901 34.1713 35.47C34.119 36.3477 34.2033 37.2282 34.4213 38.08C34.6857 39.1354 35.1924 40.1147 35.9013 40.94C37.1886 42.3534 38.8716 43.3465 40.7312 43.79C42.2253 44.2518 43.8165 44.3004 45.336 43.9306C46.8554 43.5609 48.2464 42.7866 49.3612 41.69L49.6513 41.37C50.0034 40.972 50.3148 40.5399 50.5812 40.08C51.2908 38.7936 51.6713 37.3516 51.6888 35.8826C51.7062 34.4135 51.3601 32.9629 50.6813 31.66C50.4079 31.1349 50.0721 30.6447 49.6813 30.2C49.1399 29.543 48.4947 28.9788 47.7713 28.53C47.1479 28.1162 46.4763 27.7804 45.7713 27.53L45.1112 27.33" stroke="black" stroke-width="0.75" stroke-linecap="round" stroke-linejoin="round"></path> <path d="M55.8817 43.9099C55.4985 44.2434 55.0907 44.5476 54.6618 44.82L54.3917 44.9999C54.0511 45.2456 53.6417 45.3779 53.2217 45.3779C52.8017 45.3779 52.3924 45.2456 52.0518 44.9999L51.7217 44.76C51.2488 44.3976 50.8042 43.9998 50.3917 43.57C49.8817 43.01 49.5117 42.4099 49.7617 41.9799C49.827 41.8742 49.9161 41.7852 50.0217 41.7199C50.1098 41.6633 50.2037 41.6165 50.3018 41.58C52.3918 40.83 56.3018 41.1199 56.5518 41.9999C56.7818 42.6899 56.6617 43.1799 55.8817 43.9099Z" stroke="black" stroke-width="0.75" stroke-linecap="round" stroke-linejoin="round"></path> <path d="M51.0513 43.58C50.8513 43.58 50.6213 43.58 50.3913 43.58C48.7237 43.601 47.0801 43.9795 45.5713 44.6899C44.9556 45.0171 44.4301 45.4911 44.0413 46.0699C43.7256 46.5692 43.6179 47.1723 43.7413 47.7499C43.769 47.8562 43.8058 47.9599 43.8513 48.0599C44.3813 49.1499 45.8513 49.3499 47.0413 49.4099L49.2413 49.4999H49.3813L50.5313 49.5599C51.8713 49.5599 53.2013 49.6699 54.5313 49.6899C55.8613 49.7099 57.0413 49.6899 58.2913 49.6899H59.0513C60.2813 49.6299 61.7213 49.36 62.3713 48.39C62.4532 48.2562 62.5234 48.1157 62.5812 47.9699C62.7053 47.4997 62.685 47.003 62.5226 46.5446C62.3603 46.0862 62.0637 45.6872 61.6713 45.3999C61.5325 45.284 61.3816 45.1835 61.2212 45.0999C61.063 45.0099 60.8994 44.9298 60.7313 44.8599C60.1657 44.641 59.5741 44.4964 58.9712 44.4299C57.8312 44.2799 56.7212 44.1399 55.9712 44.0599" stroke="black" stroke-width="0.75" stroke-linecap="round" stroke-linejoin="round"></path> <path d="M50.5312 49.52C50.6073 50.312 50.824 51.0841 51.1713 51.8C51.3014 52.1225 51.5324 52.3943 51.8298 52.5745C52.1273 52.7548 52.4751 52.8339 52.8213 52.8C53.0985 52.7068 53.3497 52.5496 53.5547 52.3411C53.7597 52.1326 53.9127 51.8787 54.0012 51.6C54.2112 51.06 54.2913 50.25 54.5312 49.71C54.5608 50.5256 54.8285 51.3147 55.3013 51.98C55.4976 52.2032 55.744 52.3768 56.0204 52.4863C56.2968 52.5958 56.5953 52.6382 56.8912 52.61H57.0912L57.3013 52.53C57.5132 52.4126 57.6993 52.2539 57.8488 52.0632C57.9982 51.8726 58.1079 51.6538 58.1713 51.42C58.2896 50.9463 58.3335 50.4571 58.3013 49.97" stroke="black" stroke-width="0.75" stroke-linecap="round" stroke-linejoin="round"></path> <path d="M49.2617 49.6599C49.8401 51.7918 50.2546 53.9648 50.5017 56.1599" stroke="black" stroke-width="0.75" stroke-linecap="round" stroke-linejoin="round"></path> <path d="M56.7813 55.77C56.7551 54.7178 56.8591 53.6665 57.0912 52.64C57.0912 52.64 57.0912 52.64 57.0912 52.58" stroke="black" stroke-width="0.75" stroke-linecap="round" stroke-linejoin="round"></path> <path d="M56.7227 55.8499L57.0327 56.0599C57.2669 56.2023 57.4492 56.4161 57.5527 56.6699" stroke="black" stroke-width="0.75" stroke-linecap="round" stroke-linejoin="round"></path> <path d="M49.9023 56.7599C50.0886 56.5585 50.2927 56.3744 50.5123 56.2099C50.6581 56.0823 50.8154 55.9684 50.9823 55.8699C51.6937 55.4152 52.5022 55.1343 53.3423 55.0499C54.4697 54.9455 55.6018 55.1936 56.5823 55.7599" stroke="black" stroke-width="0.75" stroke-linecap="round" stroke-linejoin="round"></path> <path d="M54.7722 57.0499C54.4471 57.3325 54.0453 57.5119 53.6179 57.5653C53.1905 57.6187 52.7568 57.5437 52.3721 57.3499C52.3721 57.2899 52.1921 57.4399 52.2221 57.4999C52.5458 58.1424 53.1101 58.6312 53.7922 58.8599C53.529 59.0404 53.2089 59.1187 52.8922 59.08" stroke="black" stroke-width="0.5" stroke-linecap="round" stroke-linejoin="round"></path> <path d="M73.2617 60.08V60.1799C73.4817 66.9599 73.9817 73.8799 74.7917 80.4199C75.2617 84.2799 75.7917 88.1099 76.5317 91.9699C76.9117 94.0899 77.3217 96.2099 77.7717 98.3499C77.9851 99.3566 78.2051 100.357 78.4318 101.35" stroke="black" stroke-width="0.75" stroke-linecap="round" stroke-linejoin="round"></path> <path d="M92.3223 40.4999C92.6549 40.8583 93.0654 41.1354 93.5222 41.3099H93.7322C97.5722 42.1099 98.7322 40.8299 99.1622 39.2299C99.2729 38.7001 99.2206 38.1493 99.0122 37.6498C98.9354 37.428 98.8134 37.2245 98.6541 37.0522C98.4947 36.8798 98.3013 36.7424 98.0862 36.6484C97.871 36.5545 97.6388 36.5061 97.4041 36.5063C97.1693 36.5066 96.9371 36.5554 96.7222 36.6498" stroke="black" stroke-width="0.75" stroke-linecap="round" stroke-linejoin="round"></path> <path d="M99.2622 37.5999C99.2622 37.6499 99.2622 37.6699 99.3522 37.6699C99.4211 37.6664 99.4875 37.642 99.5422 37.5999C99.8431 37.3065 100.082 36.9558 100.245 36.5686C100.409 36.1813 100.493 35.7652 100.493 35.3449C100.493 34.9246 100.409 34.5086 100.245 34.1213C100.082 33.7341 99.8431 33.3834 99.5422 33.0899C99.0736 32.6781 98.4841 32.4291 97.8622 32.38V32.38C97.3341 32.3217 96.7999 32.4006 96.3112 32.6091C95.8224 32.8175 95.3958 33.1485 95.0723 33.57" stroke="black" stroke-width="0.75" stroke-linecap="round" stroke-linejoin="round"></path> <path d="M97.9225 32.0898V31.9799C97.6525 31.2199 96.1125 29.6799 93.5625 30.5199C92.7248 30.8804 92.0584 31.5502 91.7024 32.3899C91.6142 32.5885 91.5667 32.8027 91.5625 33.0199" stroke="black" stroke-width="0.75" stroke-linecap="round" stroke-linejoin="round"></path> <path d="M91.5328 32.33C91.1772 32.2232 90.8001 32.2094 90.4377 32.2899C90.0752 32.3705 89.7396 32.5427 89.4627 32.79C89.2331 32.991 89.0253 33.2156 88.8427 33.46C87.6027 35.14 88.8427 38.22 89.2227 38.58" stroke="black" stroke-width="0.75" stroke-linecap="round" stroke-linejoin="round"></path> <path d="M71.6719 41.5599C71.8519 43.2399 72.0119 44.9299 72.1619 46.5599C72.2719 47.7799 72.3818 48.99 72.4718 50.2" stroke="black" stroke-width="0.75" stroke-linecap="round" stroke-linejoin="round"></path> <path d="M60.8413 36.0399C60.3286 35.4203 60.0429 34.6441 60.0314 33.8399C60.0264 33.2115 60.1477 32.5884 60.3882 32.0078C60.6287 31.4272 60.9835 30.9008 61.4314 30.46C61.3141 30.7791 61.2801 31.1228 61.3325 31.4588C61.385 31.7948 61.5223 32.1118 61.7314 32.3799C62.0114 32.7499 62.4614 33.1399 62.3614 33.5599C62.6914 32.8099 63.0114 32.0399 63.3614 31.2799C63.5014 32.3899 64.8214 33.0599 64.7814 34.1799C65.1814 33.5499 65.5514 32.9099 65.8914 32.2499C66.4044 32.8724 66.7671 33.6047 66.9513 34.39C67.1099 34.9403 67.0528 35.5303 66.7914 36.0399C66.6242 36.3685 66.3632 36.64 66.0414 36.8199C65.1857 37.2728 64.197 37.4075 63.2514 37.2C62.3335 37.1199 61.4765 36.7074 60.8413 36.0399V36.0399Z" stroke="#FF3D2E" stroke-width="0.75" stroke-linecap="round" stroke-linejoin="round"></path> <path d="M47.6809 36.11C48.0037 35.7877 48.2584 35.4039 48.4302 34.9813C48.602 34.5588 48.6873 34.106 48.6809 33.65C48.686 33.0215 48.5645 32.3985 48.324 31.8179C48.0835 31.2372 47.7288 30.7109 47.2809 30.27C47.4001 30.5905 47.435 30.9362 47.3825 31.2741C47.33 31.612 47.1917 31.9308 46.9809 32.2C46.6709 32.59 46.1709 33.03 46.3909 33.49L45.3909 31.09C45.2509 32.2 43.9309 32.87 43.9709 33.99C43.5709 33.37 43.2009 32.72 42.8609 32.06C42.3459 32.6849 41.9831 33.421 41.8009 34.21C41.648 34.7575 41.7049 35.3424 41.9608 35.85C42.1321 36.1932 42.4043 36.4759 42.7409 36.66C43.5918 37.0949 44.5669 37.2221 45.5009 37.02C46.3026 36.9431 47.0625 36.6259 47.6809 36.11Z" stroke="#FF3D2E" stroke-width="0.75" stroke-linecap="round" stroke-linejoin="round"></path> <path d="M66.0508 27.83C67.0961 27.0611 68.3746 26.6761 69.6708 26.74C70.1341 26.8538 70.5636 27.0765 70.9236 27.3895C71.2836 27.7026 71.5637 28.097 71.7407 28.54C72.1071 29.4522 72.1737 30.4574 71.9308 31.41" stroke="black" stroke-width="0.75" stroke-linecap="round" stroke-linejoin="round"></path> <path d="M45.0117 27.37H45.0718C45.8718 27.27 46.7317 27.1799 47.6317 27.1099C50.2342 26.8675 52.8499 26.7974 55.4617 26.8999C56.9061 26.9438 58.346 27.0842 59.7717 27.32C60.7717 27.49 61.6617 27.7 62.6017 27.94H62.6517" stroke="black" stroke-width="0.75" stroke-linecap="round" stroke-linejoin="round"></path> <path d="M35.2624 31.7899C34.9807 31.3627 34.8095 30.8723 34.7641 30.3627C34.7188 29.853 34.8006 29.3401 35.0024 28.8699C35.2325 28.4241 35.5564 28.0333 35.9516 27.7244C36.3469 27.4154 36.8043 27.1956 37.2925 27.0799C37.7275 26.9482 38.1891 26.9314 38.6325 27.0313C39.0759 27.1312 39.486 27.3443 39.8225 27.6499" stroke="black" stroke-width="0.75" stroke-linecap="round" stroke-linejoin="round"></path> <path d="M37.4512 87.5499L38.0012 87.2599C41.6777 85.4631 45.635 84.3097 49.7012 83.8499C51.0681 83.6823 52.4441 83.5988 53.8213 83.5999C54.4213 83.5999 55.0112 83.5999 55.5812 83.5999C59.1851 83.745 62.7565 84.3431 66.2112 85.3799L67.7612 85.8499L68.5413 86.0999L69.1012 86.2899" stroke="black" stroke-width="0.75" stroke-linecap="round" stroke-linejoin="round"></path> <path d="M67.7227 86.0299C68.1727 87.1699 68.6127 88.3199 69.0227 89.4799C70.2127 92.7499 71.2727 96.0699 72.1727 99.4799C72.4227 100.35 72.6427 101.22 72.8627 102.09" stroke="black" stroke-width="0.75" stroke-linecap="round" stroke-linejoin="round"></path> <path d="M79.8723 104.33C79.8773 104.287 79.8773 104.243 79.8723 104.2C79.8555 103.887 79.7983 103.578 79.7023 103.28V103.28C79.45 102.538 78.9751 101.892 78.3423 101.43C78.1054 101.251 77.8468 101.103 77.5724 100.99C76.7788 100.71 75.9197 100.674 75.1054 100.886C74.291 101.098 73.5586 101.549 73.0023 102.18C72.9203 102.269 72.8435 102.362 72.7723 102.46C72.3224 103.101 72.0323 103.84 71.9262 104.616C71.82 105.392 71.901 106.182 72.1624 106.92C72.2592 107.189 72.3832 107.447 72.5324 107.69C73.0282 108.477 73.7387 109.107 74.5803 109.503C75.4219 109.9 76.3594 110.048 77.2824 109.93C78.06 109.815 78.7959 109.505 79.4224 109.03C79.6292 108.88 79.8231 108.712 80.0023 108.53C80.5873 107.962 81.0146 107.253 81.2423 106.47" stroke="black" stroke-width="0.75" stroke-linecap="round" stroke-linejoin="round"></path> <path d="M79.6113 109.28H79.7213C81.3613 109.84 83.2413 110.34 84.7213 109.46C85.0104 109.289 85.2703 109.073 85.4913 108.82C86.0683 108.135 86.4912 107.333 86.7313 106.47C86.8718 106.025 86.9822 105.57 87.0614 105.11C87.2314 104.225 87.1833 103.312 86.9214 102.45C86.9026 102.379 86.8791 102.308 86.8513 102.24C86.6145 101.559 86.1552 100.977 85.5475 100.589C84.9397 100.201 84.219 100.028 83.5013 100.1C83.0378 100.211 82.5931 100.39 82.1814 100.63C81.6328 100.895 81.1216 101.231 80.6614 101.63C80.4287 101.825 80.2372 102.064 80.0981 102.333C79.9591 102.603 79.8751 102.898 79.8513 103.2" stroke="black" stroke-width="0.75" stroke-linecap="round" stroke-linejoin="round"></path> <path d="M87.9922 102.23C88.1627 102.19 88.3372 102.17 88.5122 102.17" stroke="black" stroke-width="0.75" stroke-linecap="round" stroke-linejoin="round"></path> <path d="M87.3809 102.4L87.6809 102.32" stroke="black" stroke-width="0.75" stroke-linecap="round" stroke-linejoin="round"></path> <path d="M31.0813 102.58C30.8246 101.463 30.1841 100.472 29.2714 99.7798C28.9993 99.5879 28.699 99.4395 28.3813 99.3398C28.0589 99.2315 27.7215 99.1742 27.3813 99.1699C26.9248 99.1653 26.4744 99.2753 26.0714 99.4899C25.5123 99.8203 25.0581 100.302 24.7614 100.88C24.6715 101.028 24.5913 101.181 24.5214 101.34C24.4214 101.54 24.3414 101.75 24.2614 101.96C24.09 102.412 23.9529 102.877 23.8513 103.35C23.5246 104.544 23.679 105.818 24.2814 106.9C24.669 107.493 25.2073 107.973 25.8413 108.29C26.2808 108.526 26.735 108.733 27.2013 108.91C27.5246 109.029 27.8599 109.113 28.2013 109.16C29.5528 109.472 30.9624 109.427 32.2914 109.03C32.7614 108.695 33.1569 108.266 33.4529 107.77C33.7489 107.274 33.9391 106.723 34.0114 106.15C34.2287 105.134 34.379 104.105 34.4613 103.07C34.568 102.17 34.668 101.27 34.7614 100.37C35.1714 96.4399 35.5913 92.5199 37.2013 88.9399C37.3586 88.5948 37.539 88.2607 37.7413 87.9399C37.8089 87.8294 37.8823 87.7225 37.9613 87.6199" stroke="black" stroke-width="0.75" stroke-linecap="round" stroke-linejoin="round"></path> <path d="M24.4709 101.33C24.4709 101.24 24.1909 100.96 24.1309 100.88C23.8865 100.574 23.5713 100.332 23.2123 100.175C22.8534 100.018 22.4616 99.9512 22.071 99.9799H21.8809C21.4084 100.101 20.9649 100.316 20.5767 100.611C20.1885 100.906 19.8635 101.277 19.6209 101.7V101.7C19.5241 101.828 19.4339 101.962 19.3509 102.1C19.136 102.444 18.9423 102.802 18.7709 103.17C18.5251 103.679 18.3566 104.221 18.2709 104.78C18.1914 105.262 18.2145 105.755 18.3385 106.227C18.4626 106.699 18.6849 107.14 18.9909 107.52C19.3569 107.921 19.8227 108.218 20.3409 108.38C21.1944 108.652 22.085 108.79 22.9809 108.79C24.3713 108.999 25.7828 109.029 27.1809 108.88V108.88" stroke="black" stroke-width="0.75" stroke-linecap="round" stroke-linejoin="round"></path> <path d="M49.7012 83.8499C49.8242 84.5858 50.0782 85.2937 50.4512 85.9399C50.6068 86.226 50.83 86.4697 51.1012 86.6499C51.4359 86.8047 51.8029 86.8767 52.1713 86.8599C53.0781 86.9955 54.0026 86.7849 54.7612 86.27C55.0628 85.9201 55.2908 85.5132 55.4316 85.0734C55.5725 84.6335 55.6233 84.1699 55.5812 83.71" stroke="black" stroke-width="0.75" stroke-linecap="round" stroke-linejoin="round"></path> <path d="M51.502 72.45C51.8892 72.7644 52.3505 72.9744 52.8419 73.0599C53.0867 73.0962 53.3367 73.0525 53.5547 72.9354C53.7727 72.8183 53.9471 72.634 54.052 72.4099" stroke="black" stroke-width="0.5" stroke-linecap="round" stroke-linejoin="round"></path> <path d="M23.0312 37.7799C24.7213 34.9099 25.4112 30.8499 25.9012 27.2299C26.2812 24.4299 25.5712 21.5999 25.6212 18.7799C25.6347 17.89 25.7285 17.0031 25.9012 16.1299C26.0349 15.4005 26.222 14.6819 26.4612 13.9799C26.9587 12.5574 27.6521 11.2111 28.5212 9.97992C28.8295 9.52785 29.1634 9.09382 29.5212 8.67993C29.2188 9.21937 28.9742 9.7892 28.7913 10.3799C28.4944 11.2821 28.419 12.2425 28.5713 13.1799C28.7086 13.9616 28.9578 14.7194 29.3113 15.4299V15.4299C29.765 16.3733 30.4231 17.2037 31.2378 17.861C32.0525 18.5183 33.0033 18.9859 34.0212 19.2299C34.2774 19.3029 34.538 19.3597 34.8013 19.3999C36.1444 19.6218 37.4459 20.0467 38.6613 20.6599C39.2251 20.9417 39.7609 21.2765 40.2612 21.6599C40.4412 21.7899 40.6112 21.9299 40.7712 22.0699L40.9413 22.2299C41.6106 22.8277 42.1603 23.5471 42.5613 24.3499" stroke="#FFA537" stroke-width="0.75" stroke-linecap="round" stroke-linejoin="round"></path> <path d="M75.7422 25.1799C75.9495 25.7398 76.1134 26.3148 76.2322 26.8999C76.3686 27.6148 76.4256 28.3426 76.4022 29.0699C76.3904 29.4652 76.3537 29.8593 76.2922 30.2499" stroke="#FFA537" stroke-width="0.75" stroke-linecap="round" stroke-linejoin="round"></path> <path d="M41.332 21.8199C41.6529 21.2344 42.0209 20.6758 42.4321 20.1498C42.6221 19.8998 42.8221 19.6599 43.0321 19.4199C43.6021 18.7399 44.222 18.0999 44.842 17.4199C46.4203 16.0027 47.7696 14.3499 48.842 12.5199C49.344 11.4708 49.7329 10.3713 50.0021 9.23987C50.2521 8.30987 50.4821 7.36989 50.7621 6.44989C51.3921 4.44989 52.4521 2.35986 54.3221 1.35986C52.8821 2.97986 53.0221 5.57988 54.1321 7.43988C55.1903 9.04359 56.6301 10.3596 58.3221 11.2699L59.0021 11.6699C59.7821 12.1099 60.5721 12.5399 61.3721 12.9499C62.8421 13.7199 64.3721 14.4499 65.7921 15.2399C67.0723 15.9193 68.3111 16.6739 69.5021 17.4999C69.9421 17.8099 70.3621 18.1299 70.7821 18.4999C71.2021 18.8699 71.5621 19.1499 71.9321 19.4999C73.6239 21.0719 74.9427 23.0023 75.7921 25.1498" stroke="#FFA537" stroke-width="0.75" stroke-linecap="round" stroke-linejoin="round"></path> <path d="M75.7227 25.58C75.7227 25.44 75.7227 25.3 75.7227 25.17C75.9627 22.52 78.0227 20.33 79.5927 18.05C80.7652 16.6182 81.3987 14.8206 81.3827 12.97C81.9922 14.3754 82.4904 15.8266 82.8727 17.31C83.0721 18.1657 83.1728 19.0414 83.1727 19.92C83.1727 20.38 82.8827 22.11 82.7527 24.48C82.6675 25.9921 82.6675 27.5079 82.7527 29.02C82.9927 32.75 83.8927 36.94 86.3727 40.26" stroke="#FFA537" stroke-width="0.75" stroke-linecap="round" stroke-linejoin="round"></path> <path d="M88.5527 45.4099C92.8927 52.4099 95.5527 58.7499 95.3927 66.9099C95.2629 70.8037 94.4891 74.649 93.1027 78.2899C92.106 81.1398 90.5333 83.754 88.4827 85.9699C88.4069 86.0728 88.3196 86.1667 88.2227 86.2499" stroke="#FFA537" stroke-width="0.75" stroke-linecap="round" stroke-linejoin="round"></path> <path d="M94.8721 104.52C93.4868 104.849 92.08 105.08 90.6621 105.21" stroke="#FFA537" stroke-width="0.75" stroke-linecap="round" stroke-linejoin="round"></path> <path d="M93.2617 78.33C95.0355 75.6867 96.47 72.831 97.5317 69.83C97.6217 69.59 97.7218 69.3399 97.8218 69.0999C98.6318 67.1899 99.8218 65.3399 101.822 64.7899C100.845 65.8814 100.112 67.1681 99.6705 68.5646C99.2292 69.9611 99.0898 71.4355 99.2617 72.89C99.7517 76.72 102.202 79.9899 103.562 83.6099C107.312 93.6099 106.272 97.35 103.062 100.33C100.777 102.409 97.9879 103.854 94.9717 104.52" stroke="#FFA537" stroke-width="0.75" stroke-linecap="round" stroke-linejoin="round"></path> <path d="M15.3825 103.06C14.1644 103.076 12.9559 102.841 11.8325 102.37C8.59246 101.05 5.95251 98.01 4.25251 94.83C1.58417 90.0831 0.531263 84.5974 1.25251 79.2C1.68176 76.9232 2.28697 74.6831 3.06256 72.4999C4.34999 68.8183 5.31037 65.0303 5.93256 61.1799C6.36011 58.6543 6.18187 56.0632 5.41254 53.6199C4.98163 52.3459 4.22279 51.2077 3.21247 50.3199C5.02285 51.1137 6.60919 52.3423 7.83039 53.8967C9.05158 55.4511 9.86981 57.2831 10.2125 59.2299C10.6025 61.5399 10.2926 63.8899 10.4326 66.2299C10.5726 68.5699 11.2525 71.0499 13.1025 72.4699C13.639 72.8793 14.2274 73.2155 14.8525 73.4699V73.4699C16.2825 74.0999 17.8525 74.5499 18.8525 75.5699C19.0653 75.7859 19.2502 76.0278 19.4025 76.2899" stroke="#FFA537" stroke-width="0.75" stroke-linecap="round" stroke-linejoin="round"></path> <path d="M15.0216 73.2798C11.3116 63.9398 13.1216 52.6498 19.1216 44.5898" stroke="#FFA537" stroke-width="0.75" stroke-linecap="round" stroke-linejoin="round"></path> <path d="M34.0918 106.18L39.5519 107C42.4452 107.44 45.3284 107.773 48.2018 108C51.4818 108.25 54.7519 108.35 58.0419 108.29H58.3918C62.8916 108.199 67.3794 107.791 71.8219 107.07" stroke="black" stroke-width="0.75" stroke-linecap="round" stroke-linejoin="round"></path> <path d="M87.6808 102.32C87.4877 102.428 87.2719 102.49 87.0508 102.5" stroke="black" stroke-width="0.5" stroke-linecap="round" stroke-linejoin="round"></path> <path d="M87.9916 102.23C87.8866 102.254 87.7832 102.284 87.6816 102.32" stroke="black" stroke-width="0.75" stroke-linecap="round" stroke-linejoin="round"></path> <path d="M88.5122 102.18C88.3418 102.22 88.1673 102.24 87.9922 102.24" stroke="black" stroke-width="0.5" stroke-linecap="round" stroke-linejoin="round"></path> <path d="M88.5217 102.17H88.5117" stroke="black" stroke-width="0.75" stroke-linecap="round" stroke-linejoin="round"></path> <path d="M22.0315 99.4399C19.7243 99.1042 17.5016 98.3339 15.4814 97.1699C13.5514 95.8799 12.1014 93.5999 12.4814 91.3099C12.8827 91.9367 13.487 92.4067 14.1932 92.6415C14.8994 92.8763 15.6648 92.8616 16.3614 92.5999C15.5319 92.4228 14.7643 92.0286 14.1371 91.4576C13.5098 90.8866 13.0455 90.1592 12.7915 89.3499C12.3032 87.7307 12.1701 86.0252 12.4015 84.3499C13.0715 87.0299 16.4015 88.0899 19.1415 87.9799C21.8815 87.8699 24.7514 87.05 27.3814 87.89C26.0388 85.5154 25.3487 82.8276 25.3814 80.0999C25.7723 80.3982 26.2236 80.6075 26.7038 80.7128C27.1841 80.8182 27.6817 80.8172 28.1615 80.71C28.1377 80.5514 28.1044 80.3944 28.0615 80.2399C27.6809 79.1863 27.134 78.2005 26.4415 77.3199C25.8185 76.3932 25.2668 75.4204 24.7915 74.4099C23.3669 71.3301 22.6399 67.9737 22.6623 64.5804C22.6848 61.1871 23.4562 57.8406 24.9215 54.7799C24.6915 56.7799 24.7615 58.9899 25.9215 60.6499C27.3115 62.6499 29.9214 63.3299 32.2514 63.8799" stroke="#FF3D2E" stroke-width="0.5" stroke-linecap="round" stroke-linejoin="round"></path> <path d="M97.2615 38.5199C97.2756 38.6824 97.2403 38.8453 97.1603 38.9873C97.0803 39.1294 96.9592 39.2441 96.813 39.3163C96.6668 39.3884 96.5023 39.4148 96.3409 39.3919C96.1794 39.369 96.0286 39.2979 95.9082 39.1879C95.7879 39.0779 95.7034 38.9341 95.666 38.7754C95.6287 38.6167 95.6402 38.4504 95.6989 38.2983C95.7576 38.1462 95.8607 38.0153 95.995 37.9228C96.1293 37.8303 96.2884 37.7805 96.4514 37.7799C96.5534 37.7745 96.6555 37.7895 96.7516 37.8239C96.8477 37.8583 96.936 37.9115 97.0114 37.9804C97.0868 38.0492 97.1478 38.1324 97.1907 38.225C97.2336 38.3176 97.2577 38.4179 97.2615 38.5199Z" stroke="black" stroke-width="0.5" stroke-linecap="round" stroke-linejoin="round"></path> <path d="M89.8227 34.6699C89.6638 34.5455 89.56 34.3637 89.5339 34.1636C89.5077 33.9635 89.5611 33.761 89.6827 33.5999C89.7732 33.5028 89.8895 33.4334 90.018 33.3998C90.1465 33.3662 90.2818 33.3699 90.4082 33.4104C90.5347 33.4509 90.6471 33.5266 90.7322 33.6286C90.8173 33.7305 90.8716 33.8546 90.8888 33.9863C90.9061 34.118 90.8855 34.2518 90.8295 34.3723C90.7735 34.4927 90.6845 34.5947 90.5727 34.6663C90.4609 34.738 90.331 34.7764 90.1982 34.7771C90.0654 34.7777 89.9352 34.7406 89.8227 34.6699V34.6699Z" stroke="black" stroke-width="0.5" stroke-linecap="round" stroke-linejoin="round"></path> <path d="M93.2627 32.9798C93.117 32.8472 93.0226 32.6675 92.996 32.4723C92.9694 32.277 93.0122 32.0786 93.1171 31.9118C93.2219 31.7449 93.3821 31.6203 93.5696 31.5596C93.7571 31.4989 93.96 31.5061 94.1427 31.5799C94.2884 31.7125 94.3828 31.8922 94.4094 32.0874C94.4361 32.2827 94.3932 32.4811 94.2883 32.6479C94.1835 32.8148 94.0233 32.9394 93.8358 33.0001C93.6483 33.0608 93.4454 33.0536 93.2627 32.9798Z" stroke="black" stroke-width="0.5" stroke-linecap="round" stroke-linejoin="round"></path> <path d="M96.5116 34.8599C96.3454 34.8006 96.2019 34.6911 96.1007 34.5465C95.9996 34.4019 95.946 34.2294 95.9473 34.053C95.9486 33.8765 96.0048 33.7049 96.1081 33.5618C96.2113 33.4188 96.3565 33.3114 96.5236 33.2546C96.6906 33.1978 96.8712 33.1944 97.0403 33.2449C97.2094 33.2953 97.3586 33.3972 97.4672 33.5363C97.5758 33.6753 97.6384 33.8447 97.6464 34.021C97.6543 34.1973 97.6072 34.3717 97.5116 34.52C97.4197 34.6934 97.265 34.8252 97.0791 34.8884C96.8932 34.9516 96.6902 34.9414 96.5116 34.8599V34.8599Z" stroke="black" stroke-width="0.5" stroke-linecap="round" stroke-linejoin="round"></path> <path d="M91.9724 37.18C93.0524 38.18 93.6024 38.25 94.3424 38C94.8424 37.83 94.9124 37.87 95.0824 37C95.4224 35.3 93.9025 34.69 92.7825 34.71C92.4932 34.695 92.2049 34.7563 91.9469 34.888C91.6889 35.0196 91.4701 35.2169 91.3125 35.46C90.8725 36.07 91.1624 36.46 91.9724 37.18Z" stroke="black" stroke-width="0.5" stroke-linecap="round" stroke-linejoin="round"></path> <path d="M53.9512 17.5899C53.9639 17.4746 53.9874 17.3609 54.0212 17.2499C54.2158 16.8477 54.5293 16.5149 54.9192 16.2967C55.3091 16.0785 55.7566 15.9853 56.2012 16.0299C57.2043 16.211 58.1728 16.5485 59.0713 17.0299C59.6121 17.2635 60.1924 17.3925 60.7812 17.4099H60.9712C61.3251 17.3914 61.6688 17.2848 61.9712 17.0999" stroke="#FABA12" stroke-width="0.75" stroke-linecap="round" stroke-linejoin="round"></path> <path d="M87.9121 39.46C87.9921 39.935 88.1091 40.4031 88.2621 40.8599C88.4907 41.6 88.8761 42.2822 89.3921 42.8599C89.6849 43.205 90.021 43.5109 90.3921 43.77" stroke="black" stroke-width="0.5" stroke-linecap="round" stroke-linejoin="round"></path> <path d="M28.7012 98.18C29.0605 98.112 29.4256 98.0785 29.7913 98.08C30.7453 98.0731 31.689 98.2786 32.5538 98.6816C33.4186 99.0846 34.1829 99.675 34.7913 100.41" stroke="black" stroke-width="0.5" stroke-linecap="round" stroke-linejoin="round"></path> <path d="M72.0215 99.5499L72.1715 99.4299C73.3183 98.5555 74.7299 98.1002 76.1715 98.14C76.6271 98.1534 77.0799 98.2171 77.5215 98.33" stroke="black" stroke-width="0.5" stroke-linecap="round" stroke-linejoin="round"></path> <path d="M94.8813 104.52C94.7961 104.587 94.7058 104.647 94.6113 104.7" stroke="#FFA537" stroke-width="0.75" stroke-linecap="round" stroke-linejoin="round"></path> <path d="M19.0112 75.6199C18.9878 75.5923 18.9676 75.5621 18.9512 75.5299" stroke="#FFA537" stroke-width="0.75" stroke-linecap="round" stroke-linejoin="round"></path> <path d="M40.2617 21.6099L40.7217 21.7999" stroke="#FFA537" stroke-width="0.75" stroke-linecap="round" stroke-linejoin="round"></path> <path d="M73.082 60.2999L73.222 60.1299C75.4634 57.3814 77.8608 54.7637 80.4021 52.2899C82.3421 50.3999 84.402 48.5799 86.462 46.8499C87.112 46.3099 87.772 45.7799 88.462 45.2599C89.152 44.7399 89.772 44.2599 90.462 43.7599C91.552 42.9399 92.6621 42.1499 93.7821 41.3899" stroke="black" stroke-width="0.75" stroke-linecap="round" stroke-linejoin="round"></path> <path d="M71.8926 51.2499C72.0455 50.9203 72.2753 50.6322 72.5626 50.4099C72.6626 50.3299 72.7825 50.2398 72.9525 50.0898C75.1525 48.1998 77.5125 46.3599 79.9525 44.6099C81.4125 43.6099 82.9526 42.5399 84.4026 41.6099C85.0726 41.1699 85.7426 40.7499 86.4026 40.3299L87.8625 39.4299C88.3092 39.1499 88.7592 38.8799 89.2125 38.6199" stroke="black" stroke-width="0.75" stroke-linecap="round" stroke-linejoin="round"></path> <path d="M34.391 38.08C34.131 41.87 33.921 45.08 33.671 48.83C30.551 45.83 28.131 42.73 25.251 40.07C24.4852 39.3554 23.677 38.6875 22.8309 38.07C22.0752 37.4997 21.2836 36.9786 20.4609 36.51C20.1409 36.3233 19.8076 36.1433 19.4609 35.97" stroke="black" stroke-width="0.75" stroke-linecap="round" stroke-linejoin="round"></path> <path d="M14.9609 40.47L16.171 41.64L19.171 44.54L21.171 46.54L27.171 52.36L32.681 57.69C32.511 59.85 32.341 61.89 32.161 63.89C31.681 69.32 31.161 74.38 30.531 80.21C30.531 80.32 30.531 80.43 30.531 80.54C30.531 80.65 30.531 80.84 30.531 80.99C30.271 83.38 30.001 85.77 29.741 88.16C29.3676 91.4933 28.9943 94.8266 28.621 98.16L28.531 99.01" stroke="black" stroke-width="0.75" stroke-linecap="round" stroke-linejoin="round"></path> <path d="M87.011 102.46C87.5281 102.182 88.1172 102.067 88.7009 102.13C88.8164 102.158 88.9275 102.202 89.031 102.26C89.861 102.55 90.161 103.56 90.271 104.43C90.271 104.62 90.271 104.82 90.271 105.01C90.2759 105.08 90.2759 105.15 90.271 105.22C90.3081 105.716 90.2745 106.214 90.171 106.7C90.0325 107.454 89.6102 108.127 88.991 108.58C87.9275 109.129 86.6984 109.264 85.541 108.96" stroke="black" stroke-width="0.75" stroke-linecap="round" stroke-linejoin="round"></path> <path d="M19.6015 101.7C19.1769 101.32 18.6337 101.1 18.0647 101.076C17.4958 101.053 16.9362 101.227 16.4815 101.57C16.0338 101.991 15.6913 102.512 15.4815 103.09C15.4115 103.26 15.3415 103.43 15.2815 103.61C15.2215 103.79 15.1216 104.12 15.0616 104.37C14.8563 104.904 14.7782 105.478 14.8338 106.048C14.8893 106.617 15.0769 107.166 15.3815 107.65C15.7278 107.981 16.1432 108.232 16.5979 108.384C17.0526 108.537 17.5354 108.586 18.0115 108.53C18.8015 108.53 19.5915 108.37 20.3715 108.41" stroke="black" stroke-width="0.75" stroke-linecap="round" stroke-linejoin="round"></path> <path d="M15.2609 40.33C15.1773 40.3792 15.0904 40.4227 15.0009 40.46C13.9932 40.8666 12.9025 41.0244 11.8209 40.9199C10.8219 40.7597 9.85983 40.421 8.98084 39.9199C8.43921 39.6785 7.9678 39.3035 7.61085 38.83C7.35522 38.3899 7.22388 37.8888 7.23084 37.3799C7.20748 36.7792 7.3605 36.1848 7.67091 35.6699C8.05331 35.1199 8.636 34.7417 9.29407 34.6165C9.95215 34.4912 10.6332 34.6289 11.1909 34.9999" stroke="black" stroke-width="0.75" stroke-linecap="round" stroke-linejoin="round"></path> <path d="M7.34248 35.6499C7.21531 35.346 7.1652 35.0153 7.19661 34.6873C7.22801 34.3593 7.34 34.0443 7.52253 33.77C7.90098 33.2246 8.44956 32.8201 9.08247 32.6199C9.49138 32.4806 9.92049 32.4096 10.3525 32.4099C11.3026 32.4086 12.2229 32.7413 12.9525 33.3499" stroke="black" stroke-width="0.75" stroke-linecap="round" stroke-linejoin="round"></path> <path d="M10.3516 32.0399C10.7636 31.7003 11.251 31.4642 11.7728 31.3511C12.2947 31.238 12.8359 31.2514 13.3516 31.39C14.2602 31.6217 15.1003 32.0675 15.8016 32.69L16.0717 32.9099" stroke="black" stroke-width="0.75" stroke-linecap="round" stroke-linejoin="round"></path> <path d="M15.8711 32.5499C16.259 32.4293 16.6695 32.4001 17.0706 32.4648C17.4716 32.5294 17.8522 32.6861 18.1825 32.9225C18.5128 33.1588 18.784 33.4685 18.9746 33.8272C19.1652 34.1859 19.2701 34.5839 19.2811 34.9899C19.2554 35.3028 19.2858 35.6178 19.3711 35.9199" stroke="black" stroke-width="0.75" stroke-linecap="round" stroke-linejoin="round"></path> <path d="M16.2617 41.58C16.9882 40.0211 18.0066 38.6158 19.2617 37.4399C19.5343 37.1742 19.8213 36.9238 20.1217 36.6899C20.1625 36.6711 20.2068 36.6614 20.2517 36.6614C20.2966 36.6614 20.341 36.6711 20.3817 36.6899C20.3916 36.7009 20.397 36.7152 20.397 36.7299C20.397 36.7447 20.3916 36.759 20.3817 36.77" stroke="black" stroke-width="0.5" stroke-linecap="round" stroke-linejoin="round"></path> <path d="M8.64258 36.7299C8.71729 36.9554 8.8528 37.1559 9.03418 37.3093C9.21556 37.4626 9.43577 37.5629 9.67053 37.5991C9.90529 37.6353 10.1455 37.606 10.3646 37.5144C10.5838 37.4228 10.7734 37.2725 10.9126 37.08C11.0196 36.9683 11.0792 36.8196 11.0792 36.6649C11.0792 36.5103 11.0196 36.3616 10.9126 36.2499C10.7737 36.0674 10.5876 35.9261 10.3744 35.8416C10.1612 35.757 9.92879 35.7322 9.70251 35.77C9.47654 35.8093 9.26511 35.9077 9.08948 36.0552C8.91385 36.2028 8.78028 36.3941 8.70251 36.6099" stroke="black" stroke-width="0.5" stroke-linecap="round" stroke-linejoin="round"></path> <path d="M13.6627 36.23C13.5068 36.5734 13.4889 36.9637 13.6127 37.32C13.7257 37.5254 13.8948 37.6946 14.1001 37.8079C14.3054 37.9212 14.5386 37.9739 14.7727 37.96C15.7727 37.96 18.2627 36.53 17.1427 35.33C16.8797 35.088 16.5602 34.9156 16.2135 34.8288C15.8668 34.7419 15.5038 34.7433 15.1577 34.8328C14.8116 34.9223 14.4936 35.0971 14.2324 35.3411C13.9713 35.5852 13.7754 35.8907 13.6627 36.23V36.23Z" stroke="black" stroke-width="0.5" stroke-linecap="round" stroke-linejoin="round"></path> <path d="M9.76203 33.3699C9.34203 34.0399 10.682 34.0899 11.142 33.8599C11.1912 33.8419 11.2361 33.814 11.274 33.7778C11.3119 33.7417 11.3418 33.6981 11.362 33.6498C11.472 33.3998 11.1621 33.1699 10.9121 33.0599C10.7017 32.951 10.4688 32.8928 10.232 32.8899C10.1137 32.8941 10.001 32.941 9.91462 33.0219C9.82823 33.1027 9.77404 33.2122 9.76203 33.3299" stroke="black" stroke-width="0.5" stroke-linecap="round" stroke-linejoin="round"></path> <path d="M12.6923 32.3799C12.6859 32.4028 12.6859 32.427 12.6923 32.4499" stroke="black" stroke-width="0.5" stroke-linecap="round" stroke-linejoin="round"></path> <path d="M12.6917 32.3799C12.8724 32.5991 13.1065 32.7678 13.3716 32.8699C13.5716 32.9499 13.8516 32.9699 13.9716 32.7899C14.0113 32.7184 14.0271 32.636 14.0163 32.555C14.0054 32.4739 13.9687 32.3984 13.9116 32.3399C13.7941 32.2206 13.6448 32.1373 13.4816 32.0999C13.385 32.0656 13.284 32.0454 13.1817 32.0399C12.7617 31.9599 12.5417 32.0999 12.6917 32.3799Z" stroke="black" stroke-width="0.5" stroke-linecap="round" stroke-linejoin="round"></path> <path d="M16.6413 33.58C16.6221 33.6647 16.6198 33.7523 16.6346 33.8379C16.6494 33.9235 16.6808 34.0054 16.7272 34.0788C16.7737 34.1522 16.8342 34.2157 16.9052 34.2657C16.9763 34.3156 17.0565 34.3511 17.1413 34.37C18.2213 34.45 17.8313 33.54 17.7613 33.5C17.5814 33.3614 17.367 33.275 17.1413 33.25C17.0368 33.2416 16.9327 33.27 16.8469 33.3302C16.7611 33.3905 16.699 33.4788 16.6713 33.58C16.6666 33.5963 16.6666 33.6136 16.6713 33.63" stroke="black" stroke-width="0.5" stroke-linecap="round" stroke-linejoin="round"></path> <path d="M16.9922 40.1399L17.0022 40.1498" stroke="black" stroke-width="0.5" stroke-linecap="round" stroke-linejoin="round"></path> <path d="M51.7227 44.76H51.7927" stroke="black" stroke-width="0.75" stroke-linecap="round" stroke-linejoin="round"></path> <path d="M54.0918 44.83H54.6619" stroke="black" stroke-width="0.75" stroke-linecap="round" stroke-linejoin="round"></path> <path d="M73.1816 38.1799V38.1299" stroke="black" stroke-width="0.75" stroke-linecap="round" stroke-linejoin="round"></path> </svg> 